<svg xmlns="http://www.w3.org/2000/svg" viewBox="0 0 1999.99 184.99"><path class="cls-1" d="M469.08 394.16a2.45 2.45 0 0 1 1.08-.34 28.37 28.37 0 0 1 3.45 0 2.5 2.5 0 0 1 1.41.53 2.46 2.46 0 0 0 2.18.36 3 3 0 0 0 1-.54 2 2 0 0 1 1.07-.35c1.28 0 2.56-.05 3.84-.06a3.71 3.71 0 0 0 2.16-.67 1.3 1.3 0 0 1 1.43 0l.66.38a1.08 1.08 0 0 0 .75.08 1.11 1.11 0 0 0 .37-.07 2.89 2.89 0 0 0 1.43-1.71 2.41 2.41 0 0 1 .56-1c.43-.47.89-.92 1.35-1.36a3.13 3.13 0 0 1 1.32-.73c.35-.1.52-.29.72-.82a3.8 3.8 0 0 1 1.4-1.78 1.13 1.13 0 0 1 1.08-.16 1 1 0 0 1 .34.15 3 3 0 0 0 1.78.62h3.07a11 11 0 0 1 1.15 0 2 2 0 0 1 1.06.39 3.81 3.81 0 0 0 1.36.69 1.43 1.43 0 0 1 .67.34c.38.34.78.66 1.15 1a2.24 2.24 0 0 0 1 .51 2.65 2.65 0 0 1 1 .53 2.1 2.1 0 0 0 1 .48 7.1 7.1 0 0 1 1.87.4c.56.26.57.21 1.4-.07a2.76 2.76 0 0 1 .74-.18c.9-.05 1.79-.06 2.69-.08.38 0 .77 0 1.14-.07a1.73 1.73 0 0 0 1-.44 7.85 7.85 0 0 1 1.45-1.25 1.16 1.16 0 0 1 1.1-.07 2.46 2.46 0 0 1 1.49 2.06 3.18 3.18 0 0 0 .13.76c.09.27.3.47.51.43a13 13 0 0 0 2.18-.73c.11 0 .2-.16.3-.23a2.41 2.41 0 0 1 1.44-.43h8.07a2.35 2.35 0 0 0 1.41-.52 2.7 2.7 0 0 1 1.8-.51h.77a2.39 2.39 0 0 1 1.43.48 3.37 3.37 0 0 0 .31.21 1.22 1.22 0 0 0 1.43 0 2.77 2.77 0 0 1 1.74-.67 20 20 0 0 0 2.68-.12 1.47 1.47 0 0 0 .7-.3c.39-.32.78-.65 1.16-1a1.56 1.56 0 0 1 .64-.41 5 5 0 0 0 1.7-.85 1.93 1.93 0 0 1 1.09-.3l3.07-.07a3.9 3.9 0 0 0 .75-.12 1.05 1.05 0 0 0 .35-.13 17 17 0 0 0 2.3-2 2.72 2.72 0 0 1 1-.6 5 5 0 0 0 1.35-.71 1.33 1.33 0 0 1 .69-.29l1.14-.16a1.65 1.65 0 0 0 .71-.26 3.28 3.28 0 0 1 1.8-.57h10.74a2.36 2.36 0 0 1 .38 0 2.32 2.32 0 0 1 1.4.54c.38.34.75.7 1.15 1a1.52 1.52 0 0 0 .7.28c.64.07 1.28.09 1.91.16a2.18 2.18 0 0 1 1.05.42 2.6 2.6 0 0 0 1 .52 3.66 3.66 0 0 1 1.35.68 1.43 1.43 0 0 0 .72.23 8.8 8.8 0 0 0 1.92 0 1.47 1.47 0 0 0 .73-.21 4.49 4.49 0 0 1 1.34-.69 4.71 4.71 0 0 0 1.08-.41.94.94 0 0 1 1 .15c.21.14.39.33.59.49l1.45 1.25a1.68 1.68 0 0 0 1 .4h3.07a3.08 3.08 0 0 0 1.81-.54 2.2 2.2 0 0 1 1.07-.38c.51 0 1-.06 1.53-.08a2 2 0 0 0 1.09-.31 3.67 3.67 0 0 1 2.18-.59c.64 0 1.28 0 1.92-.07a2.19 2.19 0 0 0 1.05-.4 2.41 2.41 0 0 1 1.41-.52c1.15 0 2.3-.06 3.45-.12a1.92 1.92 0 0 0 1.07-.37 2.88 2.88 0 0 1 1.79-.58h4.99a11 11 0 0 0 1.15 0 3.24 3.24 0 0 0 1.08-.34 3 3 0 0 1 1.81-.53h5.76a2.74 2.74 0 0 0 1.45-.41 3.56 3.56 0 0 1 1.82-.52h7.67a2.76 2.76 0 0 0 1.77-.63 1.76 1.76 0 0 1 1.06-.38c.9-.05 1.79-.05 2.69-.06s2 0 3.07 0a3.76 3.76 0 0 0 2.19-.55 2.18 2.18 0 0 1 1.09-.33 11 11 0 0 1 1.15 0h22.25a3.14 3.14 0 0 0 1.1-.29 3.4 3.4 0 0 1 2.18-.6H682a3.41 3.41 0 0 1 2.17.62 1.94 1.94 0 0 0 1.09.27 2.45 2.45 0 0 0 1.47-.34l.33-.19a2.87 2.87 0 0 1 2.22-.21c.38.08.72.27 1.1.34a1 1 0 0 0 .71-.18 2.06 2.06 0 0 1 1.09-.28h3.84c.51 0 1 0 1.53-.05a1.79 1.79 0 0 0 1.08-.35 3.22 3.22 0 0 1 2.13-.7l3.84-.06a2 2 0 0 0 1.08-.33 3.48 3.48 0 0 1 1.79-.6 3.06 3.06 0 0 0 1.44-.46 2.64 2.64 0 0 1 1.45-.43h1.92a2.73 2.73 0 0 1 1.79.56 1.6 1.6 0 0 0 .69.3 3.21 3.21 0 0 1 1.57 1 1.79 1.79 0 0 1 .51 1c0 .26.07.51.11.76-.36.8-.69 1.73-1.58 2-3.08.84-2.52 2.82-1.67 4.93a2.41 2.41 0 0 0 .57.84c2 1.18 3.89 3.22 6.43 1a2.48 2.48 0 0 1 1-.4c2.4.69 4.78 1.27 6.6-1.22a2.71 2.71 0 0 1 1.06-.17 6.41 6.41 0 0 1 1.52.54c3.13-.82 6-2.77 9.38-2.54a2.69 2.69 0 0 0 1-.49 1.39 1.39 0 0 1 1.38 0 15.64 15.64 0 0 0 1.42 1.13 1.67 1.67 0 0 1 .73.78c.46.41.31 1.12.77 1.53l.36.11a2.25 2.25 0 0 0 2.14-.44 2.78 2.78 0 0 1 1.08-.34l3.44-.05h1.91a2.52 2.52 0 0 0 1.43-.45 2.93 2.93 0 0 1 2.2-.36 3.2 3.2 0 0 1 .71.26 1.26 1.26 0 0 0 1.09 0 5 5 0 0 1 1-.43 2 2 0 0 0 1-.57c.64-.61 1.31-1.2 1.93-1.83a2.07 2.07 0 0 1 1.38-.54 2.27 2.27 0 0 1 1.77.54c.19.17.37.35.57.51a5.38 5.38 0 0 0 .59.48 1.47 1.47 0 0 0 1.45.08 6.18 6.18 0 0 0 .64-.4 2.63 2.63 0 0 1 2.21-.08 4 4 0 0 1 .65.39 2.44 2.44 0 0 0 1.45.34 1.64 1.64 0 0 0 1.26-.74c.19-.31.26-.71.63-.92a5.32 5.32 0 0 1 .69-.3 3.61 3.61 0 0 0 .67-.36 2.61 2.61 0 0 1 3.19 0 1.5 1.5 0 0 0 .68.3 4.84 4.84 0 0 0 1.52 0 1.4 1.4 0 0 0 .67-.32 4.32 4.32 0 0 1 .67-.36c2.9-.11 4.94-.93 4.4-4.51-.46-3 1.35-3.08 3.54-2.38a3.72 3.72 0 0 1 .88.7 1.74 1.74 0 0 1 .5 1c0 .37.09.75.13 1.12a1.05 1.05 0 0 0 .74.77 3.14 3.14 0 0 0 .75.09 1.36 1.36 0 0 0 1.44-1c.3-.77.32-.76 1.3-1.17a2.22 2.22 0 0 0 .65-.38 9 9 0 0 0 1.11-1c.32-.39.67-.76 1-1.12a6.68 6.68 0 0 1 .57-.49c1.61-1 3.37 0 5-.42a2.14 2.14 0 0 1 2.27.15 2.47 2.47 0 0 0 .6.35l.2.05-.23-.05a1.6 1.6 0 0 1-.51-.33 2.44 2.44 0 0 0-.64-.42c-.63-.2-1.17.13-1.74.26-1.45-.16-3.19.74-4.18-1.12-.55-.35-1.23-.27-1.8-.58a.75.75 0 0 1-.43-.6 1 1 0 0 1 .28-1l.26-.28a2 2 0 0 1 1.31-.71q.76-.07 1.53-.09a1.8 1.8 0 0 0 1.08-.33 3.51 3.51 0 0 1 2.12-.79 2.74 2.74 0 0 0 1.39-.56 2.12 2.12 0 0 1 1.1-.31h4.98a3.36 3.36 0 0 0 1.82-.51 2.77 2.77 0 0 1 1.46-.4c1.79 0 3.58 0 5.37-.08a1.51 1.51 0 0 0 1-.43 2.36 2.36 0 0 1 1.39-.57h1.15a2.3 2.3 0 0 1 1.42.5 2.16 2.16 0 0 0 1.4.53h2.3a2.28 2.28 0 0 0 1.42-.51 2.26 2.26 0 0 1 1.4-.52h3.45a8.79 8.79 0 0 0 2.29-.18c.28-.08.68-.57.62-.86a2.29 2.29 0 0 0-.21-.72 4.28 4.28 0 0 1-.37-.66 1.57 1.57 0 0 1 .05-1.11c.18-.48.58-.84.69-1.36a2.18 2.18 0 0 1 .54-1c.77-.84 1.59-1.65 2.43-2.44a2.41 2.41 0 0 1 1-.55 2.65 2.65 0 0 0 1-.49 3.89 3.89 0 0 1 1.35-.71 8.64 8.64 0 0 0 1-.57 2.14 2.14 0 0 1 .73-.23 13 13 0 0 1 1.53-.08h13.04a2.77 2.77 0 0 0 1.44-.45 3 3 0 0 1 1.46-.42h5.75c.51 0 1 0 1.53-.05a2.19 2.19 0 0 0 1.08-.35 3.12 3.12 0 0 1 1.79-.59c.76 0 1.53 0 2.3-.11a1.74 1.74 0 0 0 1-.43 2 2 0 0 1 1-.48c.26 0 .51-.07.77-.09a2.78 2.78 0 0 0 1.4-.54 1.91 1.91 0 0 1 1.08-.33c1.53 0 3.07-.05 4.6-.1a2.74 2.74 0 0 0 .74-.17 1.09 1.09 0 0 0 .33-.19c.7-.57 1.67-.64 2.35-1.26a1.59 1.59 0 0 1 1.06-.36h1.92c.82 0 .9 0 2.07.78a1.34 1.34 0 0 0 1.1.1 3.86 3.86 0 0 0 .65-.39 1.76 1.76 0 0 1 .65-.4 3.05 3.05 0 0 0 1.35-.69c.27-.26.6-.48.88-.74a3.32 3.32 0 0 1 1.36-.66c.49-.15.79-.63 1.29-.8a1.11 1.11 0 0 1 .74 0 3.82 3.82 0 0 1 1 .61 1.11 1.11 0 0 0 1.42 0 4.64 4.64 0 0 1 1-.59 1 1 0 0 1 .74 0c.33.18.62.43.94.64a1.16 1.16 0 0 0 1.1 0 3.47 3.47 0 0 0 .33-.18 4 4 0 0 1 1.32-.75c.63-.16 1.06-.71 1.69-.87a3.76 3.76 0 0 0 1.38-.63 2 2 0 0 1 1.09-.31h4.99a2.83 2.83 0 0 0 1.78-.57 2.34 2.34 0 0 1 1.44-.44c1 0 2 0 3.07-.08a2.55 2.55 0 0 0 1.42-.5 2.52 2.52 0 0 1 1.43-.47h4.22a2.05 2.05 0 0 0 1.09-.3 3.84 3.84 0 0 1 2.19-.58h3.45a2.83 2.83 0 0 0 1.78-.58 1.69 1.69 0 0 1 1.81.05.72.72 0 0 0 .7.14 1.89 1.89 0 0 1 1.49.09 2.5 2.5 0 0 0 1.1.29c1.53 0 3.06.08 4.6 0a1.83 1.83 0 0 0 1.05-.41c.39-.32.75-.69 1.11-1.05a1.81 1.81 0 0 1 .63-.43 9.35 9.35 0 0 0 1.73-.8 1.55 1.55 0 0 1 .73-.21c.89 0 1.78-.05 2.68-.06s1.53 0 2.3 0a3.45 3.45 0 0 0 2.16-.63 1.29 1.29 0 0 1 .72-.24c.64 0 1.28-.09 1.91-.07a3.8 3.8 0 0 0 2.5-.8 1.38 1.38 0 0 1 .72-.24h10.38a2.24 2.24 0 0 1 1.42.48 2.76 2.76 0 0 0 1.4.58h.38a2.73 2.73 0 0 1 1.4.53 2.66 2.66 0 0 0 1.08.36 16.11 16.11 0 0 0 2.69 0 2.14 2.14 0 0 0 1.07-.36 3 3 0 0 1 1.8-.53h1.54a21.81 21.81 0 0 0 2.68-.07 1.79 1.79 0 0 0 1-.44 2 2 0 0 1 .63-.42 11.85 11.85 0 0 0 1.72-.83 1.81 1.81 0 0 1 .72-.24c.64-.06 1.28-.05 1.91-.12a2 2 0 0 0 1.06-.4 1.91 1.91 0 0 1 1.06-.41c.76-.05 1.53-.06 2.3-.06H1022.34a2.54 2.54 0 0 0 1.43-.49 2.76 2.76 0 0 1 1.42-.52c.51 0 1-.05 1.52-.12a2.22 2.22 0 0 0 1.06-.42 2.52 2.52 0 0 1 1.43-.47h1.92a3.06 3.06 0 0 0 1.8-.55 1.58 1.58 0 0 1 .7-.27 11.13 11.13 0 0 1 1.15-.09 3.63 3.63 0 0 0 2.17-.61 2.3 2.3 0 0 1 1.06-.9c.51 0 1-.05 1.53-.05h5.47a3.13 3.13 0 0 0 1.8-.53 2.59 2.59 0 0 1 1.43-.49l1.91-.05a3.14 3.14 0 0 0 1.81-.53 1.92 1.92 0 0 1 1.05-.35c.9 0 1.79 0 2.68-.1a2.15 2.15 0 0 0 1.07-.39 2.51 2.51 0 0 1 1.42-.49h.77a3.32 3.32 0 0 0 2.14-.72 1.88 1.88 0 0 1 1.08-.32h6.13a2.72 2.72 0 0 0 1.45-.44 3.34 3.34 0 0 1 1.82-.48h1.54c1.53 0 3.06.06 4.6-.06a1.52 1.52 0 0 0 .72-.22c.22-.13.46-.23.68-.36a2 2 0 0 1 .72-.22 17.73 17.73 0 0 1 2.3-.07h5a2.7 2.7 0 0 0 1.78-.58 2.21 2.21 0 0 1 1.05-.41c.38-.05.76-.14 1.13-.21a1.26 1.26 0 0 0 .68-.34 1.9 1.9 0 0 1 1-.44 7.2 7.2 0 0 1 1.14-.07h5.37a2.91 2.91 0 0 0 1.46-.42 2.78 2.78 0 0 1 1.44-.45h6.92c.51 0 1 0 1.54-.06a2 2 0 0 0 1.06-.38 1.6 1.6 0 0 1 2.1 0c.3.23.59.48.88.73a2.21 2.21 0 0 0 1.38.57c1.15.05 2.3.06 3.45 0a2.31 2.31 0 0 0 1.39-.58c.3-.24.57-.51.87-.75a2.59 2.59 0 0 1 1.42-.52h5.75a3.71 3.71 0 0 1 2.16.67 1.41 1.41 0 0 0 .72.24h1.53a2.48 2.48 0 0 0 1.43-.46 2.73 2.73 0 0 1 1.44-.46c2-.05 4.09-.07 6.14 0a2.66 2.66 0 0 1 .37.07 1.18 1.18 0 0 1 1 1 2.12 2.12 0 0 1-.75 2l-.58.5a1.19 1.19 0 0 1-.7.27c-1.15.12-2.3.05-3.45.08a15 15 0 0 0-2.68.11 1 1 0 0 0-.64.36l-.25.29c-.27.55-1.19.83-.69 1.7l.58 1c.23.41 0 1.21-.45 1.29l-.36.09-.77.1a2.61 2.61 0 0 0-2 1.58 1.37 1.37 0 0 0-.11.36 1.58 1.58 0 0 0 0 .38 2.09 2.09 0 0 0 .84 2c.29.31.49.33 1 .12l.34-.17a2.72 2.72 0 0 1 1.11-.28h2.3a2.16 2.16 0 0 1 1.39.56 1.51 1.51 0 0 0 1 .41c1.15.05 2.31.05 3.46.06h3.83a3.12 3.12 0 0 1 1.8.56 1.55 1.55 0 0 0 .71.27 13.5 13.5 0 0 0 1.91.07 4 4 0 0 0 2.55-.65 1.35 1.35 0 0 1 1.43.13 4.67 4.67 0 0 1 .6.48 4.38 4.38 0 0 0 .92.68 2.35 2.35 0 0 0 .72.24 11.44 11.44 0 0 0 2.68 0 1.25 1.25 0 0 0 1.22-.74c0-.12.1-.24.14-.36a3.7 3.7 0 0 1 1.22-1.44.84.84 0 0 1 .34-.17c.49-.12 1-.22 1.49-.33a.77.77 0 0 0 .69-.78.74.74 0 0 0-.51-.9 1.91 1.91 0 0 1-1.35-1.22 2.47 2.47 0 0 0-.57-1c-.45-.45-.89-.92-1.33-1.37-.71-.74-1.43-1.47-2.2-2.14a1.68 1.68 0 0 0-1-.4c-.51 0-1 0-1.53-.07a2.27 2.27 0 0 1-1.4-.53 3.64 3.64 0 0 0-1-.48 1.23 1.23 0 0 1-.72-.84 2.4 2.4 0 0 1 0-1.13 1.64 1.64 0 0 1 .29-.69c.5-.58 1.05-1.12 1.57-1.69a2.27 2.27 0 0 1 .95-.6c.24-.09.49-.15.72-.26a6.41 6.41 0 0 1 1.35-.7 5.28 5.28 0 0 0 1.37-.67 2 2 0 0 1 .73-.21c.13 0 .25-.05.38-.05h6.14a2.55 2.55 0 0 1 1.44.44 2.75 2.75 0 0 0 1.44.45l1.53.09a1.71 1.71 0 0 1 .72.24 3.37 3.37 0 0 0 2.17.62h2.68a2.58 2.58 0 0 1 1.43.48 2.24 2.24 0 0 0 1.4.53l3.84.06a3.05 3.05 0 0 1 1.81.51 2.21 2.21 0 0 0 .34.18 1.41 1.41 0 0 0 .73.21c.63 0 1.27.07 1.91.07h9.59a2 2 0 0 1 1.1.3 3.83 3.83 0 0 0 2.18.59h4.61a3.31 3.31 0 0 0 1.48-.34.76.76 0 0 1 .7-.12 6.28 6.28 0 0 0 2.22.53 1.67 1.67 0 0 1 1 .41 1.77 1.77 0 0 0 .32.21 1.68 1.68 0 0 0 .72.25 14.11 14.11 0 0 0 2.68 0 2.58 2.58 0 0 0 1.08-.34c.23-.11.45-.25.67-.38a1.41 1.41 0 0 1 .72-.22 4.63 4.63 0 0 0 1.86-.42 1.07 1.07 0 0 1 1.08 0 2.51 2.51 0 0 0 1.09.33c.64.05 1.28.07 1.91.12a1.26 1.26 0 0 1 .71.27 2.8 2.8 0 0 0 1.77.63h3.83a2.86 2.86 0 0 0 1.78-.61 1.25 1.25 0 0 1 .71-.27c.25 0 .5-.06.76-.05a1.82 1.82 0 0 1 1.09.28 3.52 3.52 0 0 0 2.15.67c1.92 0 3.84 0 5.76.07a2.16 2.16 0 0 1 1.09.32c.22.13.42.3.64.41a2.17 2.17 0 0 0 .73.21c1 0 2.05.05 3.07.07h1.53a3.09 3.09 0 0 1 1.43.51 1.51 1.51 0 0 0 1.45.17c.35-.11.68-.35 1.1-.25a3.7 3.7 0 0 1 .7.26 2.1 2.1 0 0 0 .74.17h1.54c1.4 0 2.81-.05 4.22.06a1.93 1.93 0 0 1 1.05.41 1.32 1.32 0 0 0 .67.35c.38.06.75.14 1.13.19a2.13 2.13 0 0 1 1.07.38 5.22 5.22 0 0 0 1.33.73 4.67 4.67 0 0 1 1 .52 2 2 0 0 0 1.08.34h2.3a2.67 2.67 0 0 0 1.43-.46 2.33 2.33 0 0 1 1.45-.44h5.75a3.66 3.66 0 0 1 2.16.67 1.11 1.11 0 0 0 1.09.06 6.16 6.16 0 0 0 .68-.34 3.05 3.05 0 0 1 1.85-.34 1.62 1.62 0 0 1 .71.24 3.29 3.29 0 0 0 2.16.65h1.54a3.14 3.14 0 0 1 1.8.56 2.17 2.17 0 0 0 1.08.33c1.15 0 2.3 0 3.45.08a2 2 0 0 1 1.37.61c.27.27.57.51.83.79a2.15 2.15 0 0 0 1.36.62l.77.08a1.86 1.86 0 0 1 1 .48c.29.25.56.52.84.78a2.5 2.5 0 0 0 1 .58 3.9 3.9 0 0 1 1.34.73 1.08 1.08 0 0 0 .69.29c.51 0 1 .07 1.53.08h3.83a3 3 0 0 1 1.81.52 1.8 1.8 0 0 0 .7.29 7.65 7.65 0 0 0 2.29 0 1.68 1.68 0 0 0 .71-.28 3.43 3.43 0 0 1 1.81-.55h5.64a2.85 2.85 0 0 1 1.8.56 1.63 1.63 0 0 0 .7.27l1.91.13a2.1 2.1 0 0 1 1.07.36 2.84 2.84 0 0 0 1.42.53 3 3 0 0 1 1.77.63 2.28 2.28 0 0 0 1.43.48h1.91a3.21 3.21 0 0 1 1.8.55 2 2 0 0 0 1.08.35H1351.86c.51 0 1 0 1.53.05a2.66 2.66 0 0 1 .74.17c1.75.7 1.75.71 2.92.7h1.92a2.81 2.81 0 0 1 1.77.62 1.85 1.85 0 0 0 1.06.39 35.31 35.31 0 0 0 4.6 0 2.75 2.75 0 0 0 1.1-.33 1.48 1.48 0 0 1 1.44.07 2.37 2.37 0 0 0 1.11.28h7.67a3.64 3.64 0 0 1 2.17.64 2 2 0 0 0 1.09.3h5.76a3.9 3.9 0 0 1 2.18.6 2.2 2.2 0 0 0 1.1.28c1.15 0 2.3 0 3.45.08a2.24 2.24 0 0 1 .73.21 6.15 6.15 0 0 1 .66.37 1.42 1.42 0 0 0 1.46.07 1.41 1.41 0 0 1 1.43 0 4 4 0 0 0 1.47.38 2.55 2.55 0 0 1 1.4.56 2.38 2.38 0 0 0 1.44.46 30.55 30.55 0 0 0 3.45 0 1.69 1.69 0 0 0 1-.43 2.65 2.65 0 0 1 1-.55 4.21 4.21 0 0 0 1.33-.73 1.49 1.49 0 0 1 .69-.31 2.46 2.46 0 0 0 1-.49 3.11 3.11 0 0 1 1-.47 2.21 2.21 0 0 0 1-.55c.39-.34.73-.72 1.12-1a1.75 1.75 0 0 1 1-.42l3.45-.06h1.92a2.55 2.55 0 0 0 1.45-.43c.52-.4 1.2-.43 1.72-.79a4.74 4.74 0 0 1 1.37-.68 2.57 2.57 0 0 0 1-.56 1.74 1.74 0 0 1 1-.44c.64-.07 1.28-.1 1.91-.15a1.32 1.32 0 0 0 .71-.27c.4-.32.8-.64 1.18-1a2.46 2.46 0 0 1 1-.55 2.83 2.83 0 0 0 1-.51 2.28 2.28 0 0 1 1.4-.54h2.3c.38 0 .77 0 1.15-.05a2.82 2.82 0 0 0 1.08-.36c.83-.5.83-.53 1.39-.56a4.09 4.09 0 0 0 2.15-.72 1.11 1.11 0 0 1 1.09 0l.68.37a2.57 2.57 0 0 0 1.08.33 3.93 3.93 0 0 1 1.84.47.8.8 0 0 0 .74 0 4.33 4.33 0 0 1 1.83-.48 2.68 2.68 0 0 0 1.42-.5 2.43 2.43 0 0 1 1.46-.38 1.86 1.86 0 0 1 1.1.24 3.63 3.63 0 0 0 2.17.65h4.22c.38 0 .76.05 1.14.09a1.2 1.2 0 0 1 .68.32l3 3c1 1 1.78 1.83 2.66 2.75a2.56 2.56 0 0 1 .54 1 3.24 3.24 0 0 0 .56 1c.57.7 1.25 1.28 1.84 1.95a2 2 0 0 1 .46 1c.11.63.07 1.28.2 1.9a1.14 1.14 0 0 0 1.09.88 3.86 3.86 0 0 0 .76 0 1.68 1.68 0 0 0 .71-.26c.52-.37 1-.8 1.52-1.18a1.83 1.83 0 0 1 1.07-.33 2.71 2.71 0 0 1 1.48.3 5 5 0 0 0 1.39.64 1.63 1.63 0 0 1 .66.35 19.93 19.93 0 0 1 1.88 1.91.82.82 0 0 1 .18.33 4.32 4.32 0 0 0 .92 1.66c.25.28.46.61.71.9a1.76 1.76 0 0 1 .38 1.06c0 .9 0 1.79.06 2.69 0 1.27 0 2.55.05 3.83a1.56 1.56 0 0 0 .43 1c.51.58 1 1.14 1.57 1.68a1.61 1.61 0 0 0 1 .45c.64.06 1.28.07 1.92.07h7.68c.5 0 1 .05 1.52.09a1.2 1.2 0 0 1 .69.29c.39.34.76.69 1.15 1a2.16 2.16 0 0 0 1 .49c.26 0 .51.07.76.12a2.81 2.81 0 0 1 1.38.6 2.34 2.34 0 0 0 1.08.35 2.61 2.61 0 0 0 1.8-.46 2.09 2.09 0 0 1 1.43-.48c1.4-.05 2.81-.07 4.22 0a1.82 1.82 0 0 1 1.07.34 5.35 5.35 0 0 0 1.73.8 2.56 2.56 0 0 1 1.08 1 1.61 1.61 0 0 1-.07.37 1.9 1.9 0 0 1-2 1.41 1.94 1.94 0 0 1-1.41-.48 2.28 2.28 0 0 0-1.39-.56h-1.15a1.57 1.57 0 0 0-1.49 1c-.32.73-.42.78-1 1l-.36.12a1.73 1.73 0 0 0-.66.37 2 2 0 0 1-1 .42c-.64 0-1.28.06-1.91.13a1.4 1.4 0 0 0-.7.28 4.13 4.13 0 0 0-1 1.16 1 1 0 0 0 .36 1.32 6.28 6.28 0 0 1 1.66.92 2.3 2.3 0 0 0 2.53-.14 2.62 2.62 0 0 1 1.37-.58c.38 0 .76-.11 1.14-.16a1.49 1.49 0 0 0 .67-.35 2 2 0 0 1 1.06-.38l1.15-.06h1.54a1.84 1.84 0 0 0 .73-.19 5.78 5.78 0 0 1 1.39-.63 13.08 13.08 0 0 1 1.53-.09h5.76a4.16 4.16 0 0 0 1.83-.45 1 1 0 0 1 1.08 0 2 2 0 0 0 1.06.39H1529.08c.49 0 .59 0 1.43.49a3.25 3.25 0 0 0 1.45.43l1.53.09a1.41 1.41 0 0 1 .72.24 3.55 3.55 0 0 0 2.17.59h4.61a2 2 0 0 1 1.41.48 2.49 2.49 0 0 0 .32.2 1.67 1.67 0 0 0 .71.27 11.2 11.2 0 0 0 3.06 0 3 3 0 0 0 1.34-.69 1.1 1.1 0 0 1 1.08-.08 1.19 1.19 0 0 1 .33.19 3 3 0 0 0 2.15.67h3.07a3.16 3.16 0 0 0 2.14-.66 1.76 1.76 0 0 1 .68-.35 4.29 4.29 0 0 0 1.36-.66 1.41 1.41 0 0 1 .72-.24c.51-.06 1-.07 1.53-.09.9 0 1.79 0 2.69-.06a1.59 1.59 0 0 0 .71-.25 1 1 0 0 1 1.37.17c.09.09.2.16.29.25a1.28 1.28 0 0 1 .22 1.41 5.1 5.1 0 0 1-.72.89 1.91 1.91 0 0 1-1 .58 6.4 6.4 0 0 0-1.37.66 2.68 2.68 0 0 1-.73.22 9.38 9.38 0 0 1-1.91 0 3.5 3.5 0 0 1-1.1-.33.94.94 0 0 0-1 .11c-.31.23-.58.51-.88.74a2 2 0 0 1-1 .46c-.51.06-1 .09-1.53.11a2.56 2.56 0 0 0-1.41.52 2.53 2.53 0 0 1-1.42.51c-.51 0-1 0-1.53.08a2.41 2.41 0 0 0-1.36.65 3.9 3.9 0 0 0-1.14 1.5.9.9 0 0 0 .34.63.89.89 0 0 0 .36.11 24.1 24.1 0 0 0 2.69.07h3.07a3.18 3.18 0 0 0 2.14-.67 2.08 2.08 0 0 1 1.07-.39c.5-.06 1-.08 1.53-.1a2.66 2.66 0 0 0 1.09-.33c.11-.05.2-.15.31-.21a2.36 2.36 0 0 1 1.09-.34H1569.05a2.86 2.86 0 0 0 1.44-.44 2.88 2.88 0 0 1 1.45-.43h5.38a1.53 1.53 0 0 0 1-.4 2.18 2.18 0 0 1 .31-.22 2.46 2.46 0 0 1 2.55-.05 2.43 2.43 0 0 0 1.73.69h1.15a2.5 2.5 0 0 1 1.42.48 1.43 1.43 0 0 0 .71.29 1.56 1.56 0 0 0 1.09-.23 2.73 2.73 0 0 1 3.22-.06 3 3 0 0 0 1.45.43 3.17 3.17 0 0 1 .75.12 1.79 1.79 0 0 1 .67.35 5.2 5.2 0 0 1 .76.86 1.37 1.37 0 0 1 0 1.43 4.15 4.15 0 0 1-.82.8 1.5 1.5 0 0 1-.7.29c-.51 0-1 .09-1.53.1a2.86 2.86 0 0 0-1.77.63 1.87 1.87 0 0 1-1.05.4 12.73 12.73 0 0 1-2.69 0 1.73 1.73 0 0 1-1-.45 2.3 2.3 0 0 0-1-.55 5.86 5.86 0 0 1-1.08-.41 1 1 0 0 0-1 0 1.23 1.23 0 0 1-.33.19 5.52 5.52 0 0 0-2.06 1 1.1 1.1 0 0 1-1.39-.19 12.41 12.41 0 0 0-1.46-1.24 1.38 1.38 0 0 0-.71-.25 16.57 16.57 0 0 0-3.07 0 1.58 1.58 0 0 0-1 .5c-.36.36-.75.69-1.14 1a1.33 1.33 0 0 1-1.74-.1c-.19-.17-.36-.37-.55-.54a6.89 6.89 0 0 0-.56-.52 1.78 1.78 0 0 0-1.06-.38h-1.53a2.62 2.62 0 0 0-1.1.3 3.54 3.54 0 0 1-2.15.67 3.86 3.86 0 0 0-.73.23 3.91 3.91 0 0 1-2.47.9 1.37 1.37 0 0 0-.69.29 3 3 0 0 1-1 .54 3.45 3.45 0 0 0-1.37.64 2.1 2.1 0 0 1-.68.35 1.74 1.74 0 0 0-.36.13 1.34 1.34 0 0 0-.59.93 1.39 1.39 0 0 0 .61.92 4 4 0 0 1 1 .48 2.47 2.47 0 0 0 1.4.56 4.34 4.34 0 0 1 1.13.16 1 1 0 0 1 .35.15c.78.66 1.4 1.48 2.25 2.08.43.3.67.34 1 .1a5.72 5.72 0 0 1 1.23-.9.85.85 0 0 1 .73.05 4.44 4.44 0 0 1 .62.45c.29.24.56.53.87.74a1.09 1.09 0 0 0 .74.08.7.7 0 0 0 .59-.43 1.18 1.18 0 0 0 0-1.09c-.41-.49-.82-1-1.24-1.46a1.46 1.46 0 0 1-.39-1.05 3.22 3.22 0 0 1 0-.76c.1-.57.37-1 .93-1a3.35 3.35 0 0 1 1.14 0 1.57 1.57 0 0 1 .7.3c.64.62 1.27 1.26 1.91 1.89a2.7 2.7 0 0 0 1.32.73 3.13 3.13 0 0 1 1 .52 1.52 1.52 0 0 0 1.78 0 6.29 6.29 0 0 1 .67-.37 1.12 1.12 0 0 1 1.09.05c.11.06.21.14.32.21a2.79 2.79 0 0 0 1.82.46 1.89 1.89 0 0 0 1.07-.34 2.86 2.86 0 0 1 2.17-.53 1.29 1.29 0 0 1 .71.25 3.33 3.33 0 0 0 2.15.66h5.38c.25 0 .5-.07.76-.09a1.17 1.17 0 0 0 1-1 3.7 3.7 0 0 0-.3-1.86.75.75 0 0 1 .81-1 6.36 6.36 0 0 1 .75.08.71.71 0 0 1 .36.13c.76.69 1.49 1.4 2.26 2.07.27.24.58.48 1 .19.65-.43 1.48-.43 2.12-.87a.8.8 0 0 1 1 .07 7.83 7.83 0 0 1 .88.74c.65.62 1.28 1.25 1.91 1.88l1.08 1.09a2.16 2.16 0 0 0 1.38.57 2.52 2.52 0 0 0 1.8-.49 2.33 2.33 0 0 1 1.07-.4c.25 0 .51-.05.76-.09a1.83 1.83 0 0 0 1-.5 5.66 5.66 0 0 0 .74-.87 1.16 1.16 0 0 0 .09-1.08 2.81 2.81 0 0 0-.38-.67 2.4 2.4 0 0 1-.3-1.83 1 1 0 0 1 1-.88 1.43 1.43 0 0 1 .37.07 8 8 0 0 0 1.36.7 4.51 4.51 0 0 1 1.35.68 1.7 1.7 0 0 0 1.47.17l.36-.12c2.58-.54 1.5-2.65 1.9-4.19.27-1-1.21-3.55 1.87-2.72l.18 1.14a1.92 1.92 0 0 0 .74 1.28l.29.25a2.54 2.54 0 0 0 2.53.32 2.76 2.76 0 0 0 .67-.37 2.12 2.12 0 0 1 1.09-.31h10.68a11 11 0 0 0 1.14-.11.88.88 0 0 0 .58-1.19c-.23-.44-.46-.64-.84-.67s-1-.09-1.53-.11a2.46 2.46 0 0 1-1.69-.78 3.44 3.44 0 0 0-.27-.27 1.25 1.25 0 0 1 0-1.71 5.37 5.37 0 0 1 .57-.5.87.87 0 0 1 1.07-.08 3.07 3.07 0 0 0 1.45.41 4.15 4.15 0 0 1 1.46.42c.61.28.63.29 1.06 0a2.92 2.92 0 0 1 1.45-.44h4.98a2.55 2.55 0 0 0 1.44-.44 1.62 1.62 0 0 1 2.1 0 2.4 2.4 0 0 0 1.43.47c1.15 0 2.3.05 3.44.09a2.22 2.22 0 0 1 1.08.37 3.65 3.65 0 0 0 .34.18c.23.14.44.08.62-.19.34-.66 2.08.12 1.52-1.47a1.45 1.45 0 0 0-.76-.6 3.25 3.25 0 0 0-.73-.23 3.71 3.71 0 0 1-2.15-.68 1.81 1.81 0 0 0-1.07-.36c-.51 0-1-.06-1.53-.09a2.39 2.39 0 0 1-1.07-.39c-.11-.06-.2-.16-.31-.23a2.58 2.58 0 0 0-2.2-.24 6.29 6.29 0 0 0-.71.3c-.41.16-.42.18-1-.13a6 6 0 0 0-1.86-.39 2.13 2.13 0 0 1-1-.48l-.27-.27a2 2 0 0 1-.61-1.36 3.14 3.14 0 0 1 .17-1.13 1.07 1.07 0 0 1 1-.47 2.07 2.07 0 0 1 .7.27 3.27 3.27 0 0 0 1.83.49h6.14a3.34 3.34 0 0 1 2.5.77 2 2 0 0 0 1.09.3H1657.46a4.45 4.45 0 0 1 2.54.7 1.25 1.25 0 0 0 1.1 0 1.55 1.55 0 0 0 .32-.2 2.89 2.89 0 0 1 1.44-.49 30.54 30.54 0 0 1 3.45 0 2.52 2.52 0 0 1 1.08.33c.23.12.41.31.64.41.47.19 1 .34 1.44.52s.56.21 1.4-.11a3.34 3.34 0 0 1 1.12-.23 3 3 0 0 0 1.77-.61 1.41 1.41 0 0 1 .34-.19 1.58 1.58 0 0 1 .36-.09c.64-.05 1.28-.1 1.92-.13a2 2 0 0 0 1.34-.65 1.58 1.58 0 0 1 1.06-.37 2.55 2.55 0 0 1 1.81.43c.36.27.6.19 1-.16s.5-.66.4-1a2.23 2.23 0 0 0-1-1.1.87.87 0 0 0-.37-.06c-.51 0-1-.06-1.53-.07h-5.38a4.16 4.16 0 0 0-2.54.69 1.14 1.14 0 0 1-1.09 0c-.23-.11-.46-.22-.68-.35a2.37 2.37 0 0 0-1.09-.32l-4.6-.1a1.16 1.16 0 0 1-.72-.24c-.1-.07-.22-.12-.32-.2a3 3 0 0 0-1.78-.62 2 2 0 0 1-1.36-.63 3.45 3.45 0 0 1-.26-.28.66.66 0 0 1 0-1l.55-.53a1.28 1.28 0 0 1 1.42-.19 3.46 3.46 0 0 0 2.51.73h.38a2.46 2.46 0 0 0 1.44-.45 2.68 2.68 0 0 1 1.41-.53h.77a3.54 3.54 0 0 0 2.15-.69 1.37 1.37 0 0 1 .7-.27c.26 0 .51-.06.77-.06h6.9a2.08 2.08 0 0 1 1.39.56c.47.43.93.87 1.41 1.28a.72.72 0 0 0 .37.09 1 1 0 0 0 .95-.5 1.49 1.49 0 0 0-.07-1.1 7.77 7.77 0 0 0-.77-.85c-.34-.38-.68-.76-1-1.12a2.53 2.53 0 0 1-.78-2.07 1.85 1.85 0 0 1 .61-1.36l.49-.59a4.24 4.24 0 0 1 2.16-1.5c.34-.08.43-.21.68-.85a1.32 1.32 0 0 1 1.12-.89l.76-.12a1.89 1.89 0 0 0 1-.45c1.28-1.25 2.59-2.47 3.82-3.77.7-.75 1.46-1.43 2.21-2.12a3.29 3.29 0 0 1 1.32-.75 1.63 1.63 0 0 0 .64-.39c.29-.27.58-.52.88-.75a2.24 2.24 0 0 1 1.75-.66 2.43 2.43 0 0 0 1.67-.81c.27-.27.58-.5.85-.77a1.59 1.59 0 0 1 1-.47c.9 0 1.79-.06 2.69 0a4.15 4.15 0 0 0 2.54-.66 2.18 2.18 0 0 1 .71-.27 5.59 5.59 0 0 0 1.33-.74c.45-.24.93-.41 1.4-.61a5.06 5.06 0 0 1 2-1c.65-.27.66-.32 1.45 0a2.1 2.1 0 0 0 .74.21l2.68.05h1.92a2.79 2.79 0 0 1 1.43.49c.79.5.88.52 1.4.54s1.27.05 1.91.05a3 3 0 0 1 1.79.59 2 2 0 0 0 1.07.35c.51 0 1 0 1.54.08a2.1 2.1 0 0 1 1.08.33 3.36 3.36 0 0 0 .67.37 4.1 4.1 0 0 1 1.69.85c.46.21.94.4 1.39.64a4.87 4.87 0 0 0 1.69.84 5.4 5.4 0 0 1 .65.4 10.43 10.43 0 0 1 .88.74 2.52 2.52 0 0 0 1.72.71 2.3 2.3 0 0 1 1.67.82c.17.19.36.36.53.56a.82.82 0 0 1 .18.33 3.57 3.57 0 0 0 .94 1.63c.36.36.69.76 1.06 1.11a2.08 2.08 0 0 0 1 .56 2.77 2.77 0 0 1 1.32.72 3.31 3.31 0 0 0 .92.69.88.88 0 0 0 .73 0 8.16 8.16 0 0 1 1.41-.57 1.56 1.56 0 0 0 .67-.36 2.44 2.44 0 0 1 1.43-.46c1.54-.07 3.07 0 4.61-.08a1.17 1.17 0 0 0 .7-.27c.38-.33.79-.65 1.15-1 .74-.72 1.44-1.46 2.17-2.18a9 9 0 0 1 .89-.72 1.39 1.39 0 0 1 1.09-.17 3 3 0 0 0 1.83.44h3.07a7.2 7.2 0 0 1 1.14.08 1.72 1.72 0 0 1 1 .47c.18.18.38.33.57.5a2.62 2.62 0 0 0 1.29.8 3 3 0 0 1 1.28.8c.26.28.54.54.82.8a1.61 1.61 0 0 0 1 .42c.89.05 1.79.06 2.68.11a2 2 0 0 1 1.09.33 2.94 2.94 0 0 0 .66.39 6.13 6.13 0 0 1 1.7.84 1.85 1.85 0 0 0 1.08.34l2.3.1a2.42 2.42 0 0 1 1.43.47 2.77 2.77 0 0 0 1.43.47h3.84a2.94 2.94 0 0 0 1.8-.54 2.42 2.42 0 0 1 1.45-.4 2.65 2.65 0 0 1 1.11.25 6.64 6.64 0 0 0 1.35.7 5.44 5.44 0 0 1 1.37.67 1.86 1.86 0 0 0 .73.21 14.9 14.9 0 0 0 3.06 0 1.61 1.61 0 0 0 .7-.29c.89-.72 1.59-1.66 2.52-2.35a1.28 1.28 0 0 1 1.09-.1 3 3 0 0 1 .63.42 2.63 2.63 0 0 0 2.2.32.76.76 0 0 0 .35-.17c1.22-1.11 2.46-2.22 3.62-3.41a3.16 3.16 0 0 1 .7-.27c.51-.06 1-.05 1.53-.1s.76-.11 1.14-.16a.81.81 0 0 1 1 0 2.42 2.42 0 0 1 .41.64l.84 1.28c.07.5.12 1 .23 1.51a2 2 0 0 0 .32.68c.14.21.35.38.5.58a1.44 1.44 0 0 0 1 .51 21.69 21.69 0 0 0 2.68.09 11 11 0 0 1 1.15 0 2.26 2.26 0 0 1 1.08.35 2.94 2.94 0 0 0 1.8.52h.39a3.36 3.36 0 0 0 2.17-.59 2 2 0 0 1 1.1-.29H1830.86a3 3 0 0 0 1.79-.59 1.4 1.4 0 0 1 1.45-.07c.35.15.67.38 1 .52a1.11 1.11 0 0 0 .74 0 1 1 0 0 0 .34-.18 4.14 4.14 0 0 1 1.35-.7 2.88 2.88 0 0 0 1-.55 1.8 1.8 0 0 1 1.05-.42 7.64 7.64 0 0 1 1.91 0 1.64 1.64 0 0 1 1 .47 1.4 1.4 0 0 0 .32.22 1.06 1.06 0 0 0 1.35-.27c.23-.32.29-.71.5-1s.46-.61.65-.94a4.34 4.34 0 0 0 .24-.72 2 2 0 0 1 .61-1c.18-.16.39-.31.59-.47a3.06 3.06 0 0 1 1 .53 2.31 2.31 0 0 1 .29.24c1.46 1.62 3.08 3.07 4.62 4.61a1.67 1.67 0 0 0 1.1.18c.34-.18.66-.39 1-.56a2.5 2.5 0 0 1 1.11-.25 2.07 2.07 0 0 1 1.42.45c.68.59 1.35 1.17 2 1.79a2.26 2.26 0 0 0 1 .6 8.72 8.72 0 0 1 1.4.61c.46.22.72-.08 1-.33a17.78 17.78 0 0 1 2-1.79 1.46 1.46 0 0 1 1.44-.12 1.73 1.73 0 0 1 .31.22 2.83 2.83 0 0 0 2.21.37 1.66 1.66 0 0 0 .69-.31 6.8 6.8 0 0 0 .85-.77 3.57 3.57 0 0 1 1.29-.79 2.43 2.43 0 0 0 1.26-.83c.18-.17.38-.34.56-.52a1.59 1.59 0 0 1 2.08-.23 2.51 2.51 0 0 0 1.41.52h.39a2.24 2.24 0 0 1 1.39.57 2.31 2.31 0 0 0 1.05.41 11.07 11.07 0 0 0 1.15.06h1.92a4.29 4.29 0 0 1 1.86.42 1.2 1.2 0 0 0 1.09-.09 1.65 1.65 0 0 1 2.06.44l1.4 1.31c.45.45.89.92 1.36 1.35a2.45 2.45 0 0 0 1 .57 2.36 2.36 0 0 1 1 .49 1.93 1.93 0 0 0 1 .41 10.26 10.26 0 0 0 1.92 0 1.29 1.29 0 0 0 .71-.24 3.42 3.42 0 0 1 2.16-.64h3.07a1.94 1.94 0 0 1 1.08.34.78.78 0 0 0 .73.05c.24-.08.47-.2.71-.27a3.34 3.34 0 0 1 2.25.08 1.51 1.51 0 0 0 1.44.18 1.25 1.25 0 0 1 1.08.19 1.92 1.92 0 0 0 1.09.3 4.61 4.61 0 0 1 1.85.44 1.11 1.11 0 0 0 1.07-.16 1.5 1.5 0 0 1 .73-.2c.89 0 1.79-.05 2.68-.07h1.92a3 3 0 0 0 1.44-.44 2.21 2.21 0 0 1 1.44-.45h.76a2.85 2.85 0 0 1 1.81.5 1.65 1.65 0 0 0 1.81.08l2.2-2.12a1.9 1.9 0 0 1 1.4-.51 2 2 0 0 1 1.72.67l.84.79c.37.35.74.71 1.09 1.07a1.69 1.69 0 0 0 1 .4 2.34 2.34 0 0 0 .38 0c4.73 0 9.46.06 14.2 0a2.8 2.8 0 0 0 1.09-.32 2.2 2.2 0 0 0 .32-.21 2.31 2.31 0 0 1 1.08-.33c.9-.05 1.79-.07 2.68-.12a1.52 1.52 0 0 0 1-.45c1.54-1.53 3.16-3 4.62-4.59a12.41 12.41 0 0 1 1.41-1.3 2.56 2.56 0 0 1 2.53-.36 2.44 2.44 0 0 1 .67.37 2 2 0 0 0 1.09.33c1.53.05 3.07.06 4.6.1a2.11 2.11 0 0 1 1.07.39 3.36 3.36 0 0 1 .29.24c.29.25.59.49.86.76a1.7 1.7 0 0 0 .64.42 5 5 0 0 1 1.63 1c.38.34.8.64 1.21.94a1.34 1.34 0 0 0 .37.09 2.47 2.47 0 0 0 .38.05c2.17 0 4.35.07 6.52 0a4.05 4.05 0 0 0 .75-.17c.82-.63 1.9-.74 2.71-1.39a2.5 2.5 0 0 1 1.86-.17 1 1 0 0 1 .76.75 9.73 9.73 0 0 1 .12 1.52c0 .51.2.92.43.95a1.5 1.5 0 0 0 1-.45l.9-.71a1.15 1.15 0 0 1 .71-.24h3.84c1.53 0 3.07 0 4.6-.07V500H0V343.56c2.67-3 6.07-3.38 9.15-2.81-1.26-4.14-6.38-2.89-9.15-5.62v-6.91a4.62 4.62 0 0 1 1.11-.22c2.43-.07 4.86 0 7.29 0a3.09 3.09 0 0 1 1.8.55 2 2 0 0 0 1.07.38 15 15 0 0 0 2.68 0 2.89 2.89 0 0 0 1.05-.43c.86-.5 1-.52 1.41-.53q2.68-.12 5.37 0a3 3 0 0 1 1.09.32 2.63 2.63 0 0 0 1.76.64 3.25 3.25 0 0 1 1.46.39c.11.07.22.18.33.19a.83.83 0 0 0 .36-.11 4.92 4.92 0 0 1 1.84-.48 2.3 2.3 0 0 0 1.42-.48 1.57 1.57 0 0 1 .33-.19 2.58 2.58 0 0 1 2.55.09l.33.2a1.94 1.94 0 0 0 1.08.34c1.15.05 2.3.05 3.46.08a3.31 3.31 0 0 1 1.11.25c.47.39.94.18 1.41 0a1.72 1.72 0 0 1 1.8.19 1.77 1.77 0 0 0 1.06.39c1.15 0 2.3.07 3.45.09a2.54 2.54 0 0 1 1.44.46 3.55 3.55 0 0 0 1.82.49h7.68c.51 0 1 .06 1.53.09a1.2 1.2 0 0 1 .7.28 2.88 2.88 0 0 0 1.74.7 3.12 3.12 0 0 1 1.77.63 1.94 1.94 0 0 0 .71.29 4.23 4.23 0 0 1 1.37.66 1.74 1.74 0 0 0 .72.23 15 15 0 0 0 2.68 0 2.24 2.24 0 0 0 1.08-.33 3.32 3.32 0 0 1 1.8-.56h4.23a4.15 4.15 0 0 1 2.54.68 1.9 1.9 0 0 0 1.1.22 2.68 2.68 0 0 0 1.46-.38l.34-.18a1.28 1.28 0 0 1 1.43 0 3.83 3.83 0 0 0 2.18.63 24.06 24.06 0 0 1 3.06.08 1.9 1.9 0 0 1 1 .46 2.23 2.23 0 0 0 1.41.54c.76 0 1.53.05 2.3.07a2 2 0 0 1 1.08.32 8 8 0 0 0 1.74.79c.47.18.83.59 1.36.66.38.05.77.08 1.14.15a1.62 1.62 0 0 1 1 .53 7 7 0 0 0 .55.54 3.39 3.39 0 0 0 1.6 1 3.08 3.08 0 0 1 1 .52 1.92 1.92 0 0 0 1.08.31l4.6.1a1.42 1.42 0 0 1 .73.22c.22.13.45.24.66.38a2 2 0 0 0 .72.27 10.75 10.75 0 0 0 3 0 2.45 2.45 0 0 0 1-.46 2.62 2.62 0 0 1 1.44-.44h5.76a2.78 2.78 0 0 1 1.79.55 2.08 2.08 0 0 0 1.06.4l1.91.18a1.37 1.37 0 0 1 .7.27 4.46 4.46 0 0 0 1.35.7 3.51 3.51 0 0 1 1 .52 1.94 1.94 0 0 0 1.08.33h2.69a4.87 4.87 0 0 1 1.52.17 6.52 6.52 0 0 1 1 .53 1.51 1.51 0 0 0 .73.21c.76 0 1.53.06 2.3.06h13.43a3.47 3.47 0 0 1 2.49.8 3.19 3.19 0 0 0 1.1.28l3.07.05a3.37 3.37 0 0 1 1.45.42c.87.45.94.46 1.44.46h3.84a4.77 4.77 0 0 0 1.86-.39c.4-.16.41-.13 1.06.1a2.78 2.78 0 0 0 .73.22c.64.05 1.28.07 1.92.08h6.9a2.75 2.75 0 0 1 1.09.32 1.81 1.81 0 0 1 .33.2 2 2 0 0 0 1.09.33c1.15 0 2.3 0 3.45.06h1.54a2.84 2.84 0 0 1 1.8.54 2.88 2.88 0 0 0 1.79.55h2.69a2.76 2.76 0 0 1 1.44.44 2.93 2.93 0 0 0 2.92.15 1.17 1.17 0 0 1 1.09-.09 3.52 3.52 0 0 0 1.45.42 3.32 3.32 0 0 1 1.8.58 1.9 1.9 0 0 0 1.08.32h3.46a2.26 2.26 0 0 0 1.1-.29 1.18 1.18 0 0 1 1.09-.08 3.78 3.78 0 0 0 1.47.39h2.68a3 3 0 0 1 2.15.67 2.67 2.67 0 0 0 1.08.34c.51 0 1 0 1.54.05h2.68a2.43 2.43 0 0 1 1.44.48 3.64 3.64 0 0 0 1.82.48l3.07.06a1.66 1.66 0 0 1 .37.09 1.09 1.09 0 0 1 .36.12 3.84 3.84 0 0 0 2.15.71 1.6 1.6 0 0 1 1.05.4c.27.26.58.5.86.76.46.44.92.88 1.37 1.34a1.69 1.69 0 0 0 1 .43 10.26 10.26 0 0 0 1.92 0 1.35 1.35 0 0 0 .71-.25 3.27 3.27 0 0 1 2.16-.63h.77a2 2 0 0 1 1.09.3 3.61 3.61 0 0 0 2.18.61c.64 0 1.27 0 1.91.05a1.87 1.87 0 0 1 .74.18 1.27 1.27 0 0 1 .35.17 7.51 7.51 0 0 0 1.7.85 6.4 6.4 0 0 1 .64.42 2 2 0 0 0 1.08.34c1.15 0 2.3.07 3.45.09a1.93 1.93 0 0 1 1.07.38 3.1 3.1 0 0 0 1.8.54 6.45 6.45 0 0 1 1.52.11 1.39 1.39 0 0 1 .36.12 5.88 5.88 0 0 1 1.69 1.53 2.12 2.12 0 0 1 .29.7.58.58 0 0 1-.24.68 1.34 1.34 0 0 0-.26.27 1.35 1.35 0 0 1-1 .46 17.26 17.26 0 0 1-2.69 0 2 2 0 0 1-1.09-.29 3.52 3.52 0 0 0-2.17-.61c-1.28 0-2.56-.05-3.84.06a.63.63 0 0 0-.56.42.68.68 0 0 0 .15.7 9.09 9.09 0 0 1 1 1.19 1.32 1.32 0 0 1 .15.73.67.67 0 0 1-.39.6 1 1 0 0 1-.35.14c-.63.06-1.27.1-1.91.13a2.14 2.14 0 0 0-1.36.61 3.57 3.57 0 0 0-.28.27 2.26 2.26 0 0 0-.48 2.47.8.8 0 0 0 .18.34 6.85 6.85 0 0 0 .9.71.67.67 0 0 0 .71 0 3.12 3.12 0 0 1 1.83-.47 6 6 0 0 1 1.52.13.85.85 0 0 1 .35.15c.38.34.75.69 1.1 1.06a14.27 14.27 0 0 0 1.44 1.26 1.89 1.89 0 0 0 1.07.37h1.15a2.69 2.69 0 0 1 1.77.6 1.23 1.23 0 0 0 .69.3c.64.06 1.28.1 1.91.17a1.84 1.84 0 0 1 1.05.4l.86.77a2.5 2.5 0 0 0 1.71.74c1.15 0 2.3 0 3.45.1a1 1 0 0 1 .93.53c.09.24.19.47.29.71a3.28 3.28 0 0 0 1.27 1.39 1.49 1.49 0 0 0 .71.26 8.13 8.13 0 0 0 1.91 0 2 2 0 0 0 1-.45c.39-.32.75-.69 1.13-1a1.66 1.66 0 0 1 1-.44c.64 0 1.28-.05 1.91-.05a2.84 2.84 0 0 1 2.14.69 1.84 1.84 0 0 0 1.07.36c.89.06 1.79.07 2.68.12a1.81 1.81 0 0 1 1 .42 1.73 1.73 0 0 0 .66.37 2.94 2.94 0 0 1 .72.26 1 1 0 0 1 .52.53 4.89 4.89 0 0 0 1.22 1.93l1.33 1.38a1.74 1.74 0 0 1 .48 1c.1.63.13 1.27.19 1.91a1.06 1.06 0 0 0 1 .92 3.86 3.86 0 0 0 .76 0 1.82 1.82 0 0 0 .72-.25 6.57 6.57 0 0 0 1.45-1.23 1.34 1.34 0 0 0 .36-1.39c-.09-.24-.2-.47-.27-.71a3.13 3.13 0 0 1 0-1.52 1 1 0 0 1 .9-.56 1.7 1.7 0 0 1 .71.23 4.09 4.09 0 0 0 1 .52 3.91 3.91 0 0 1 1.37.64 2 2 0 0 0 1.09.31h3.46a2.82 2.82 0 0 1 1.09.33 6.3 6.3 0 0 0 1.68.89 10.76 10.76 0 0 0 1.32.76 2.71 2.71 0 0 1 1.32.71c.29.26.56.53.86.76a2.08 2.08 0 0 0 1 .44c.51.05 1 .05 1.54.06a7 7 0 0 1 1.52.13 2 2 0 0 1 .69.31 4.8 4.8 0 0 1 .84.78 2.49 2.49 0 0 0 2.06.81h1.92a2.57 2.57 0 0 1 1.43.49 2.15 2.15 0 0 0 .67.35 4.34 4.34 0 0 1 1.35.7 2.21 2.21 0 0 0 1.44.42 1.84 1.84 0 0 0 1.41-.5 2 2 0 0 1 1-.46c.64-.07 1.28-.08 1.91-.12a2.23 2.23 0 0 0 1.06-.41 2 2 0 0 1 .32-.21 1.49 1.49 0 0 1 1.46 0 2.82 2.82 0 0 0 .64.42 7.5 7.5 0 0 1 2.06 1 1.51 1.51 0 0 0 .72.24 14.12 14.12 0 0 0 2.68 0 1.83 1.83 0 0 0 1-.44c.38-.33.74-.7 1.14-1a1.83 1.83 0 0 1 1-.44c1.28 0 2.56-.06 3.83-.12a1.45 1.45 0 0 0 1-.43c.44-.46.91-.89 1.38-1.32.28-.27.56-.53.85-.78a1.89 1.89 0 0 1 1-.4 4 4 0 0 0 2.15-.69 2.38 2.38 0 0 1 1.85-.13.89.89 0 0 1 .6.45 6.35 6.35 0 0 0 .72 1.33 2.88 2.88 0 0 1 .51 1c0 .12 0 .25.1.37a1 1 0 0 0 .17.34 8.66 8.66 0 0 0 2.23 2.08 1.13 1.13 0 0 0 1.09-.07c.21-.14.4-.32.62-.44a1.42 1.42 0 0 1 1.45 0 3 3 0 0 1 .63.44 1.26 1.26 0 0 0 .7.27c1 .08 2.05 0 3.07.05a3.26 3.26 0 0 0 2.14-.68 1.26 1.26 0 0 1 1.73.13 3.53 3.53 0 0 0 .32.21 1.32 1.32 0 0 0 1.43 0c.2-.16.4-.32.59-.49l.84-.78a1.54 1.54 0 0 1 1.09-.24 2.72 2.72 0 0 1 .7.29 2.69 2.69 0 0 0 1.8.48 1.55 1.55 0 0 0 .74-.17c.34-.18.66-.39 1-.54s.72-.24 1.07-.39a4.43 4.43 0 0 0 .65-.41 1.64 1.64 0 0 1 .72-.26 2.77 2.77 0 0 1 2.18.45 2.4 2.4 0 0 0 1.83.33 1.1 1.1 0 0 0 1-1c.06-.64.1-1.27.17-1.91a.89.89 0 0 1 .33-.66 1.73 1.73 0 0 1 .7-.25 4 4 0 0 1 .77 0 1.68 1.68 0 0 1 1.05.39 8.82 8.82 0 0 1 .84.78c.82.81 1.62 1.63 2.43 2.45a10.19 10.19 0 0 0 .85.77 1.77 1.77 0 0 0 .68.32 2.87 2.87 0 0 0 2.21-.32c.76-.46.77-.45 1-.41a2.17 2.17 0 0 1 1 .45 17.91 17.91 0 0 1 1.62 1.64c.35.37.72.71 1.1 1.06a2.51 2.51 0 0 0 2.12.65c.49-.07.77-.2.9-.58a4.52 4.52 0 0 1 2.32-1.67 1 1 0 0 1 1.08-.05c.22.13.41.29.63.42a2.76 2.76 0 0 0 1.84.35 1.37 1.37 0 0 0 .71-.27c.39-.33.77-.67 1.15-1a3 3 0 0 1 1.33-.72 3.13 3.13 0 0 0 1-.54 1.72 1.72 0 0 1 .71-.27 19.75 19.75 0 0 1 4.21 0 1.74 1.74 0 0 1 .72.26 3 3 0 0 0 1.78.59h.77a3 3 0 0 1 1.79.56 2.06 2.06 0 0 0 1.09.34c1.14.05 2.3.05 3.45.09a1.88 1.88 0 0 1 1.36.58 3.47 3.47 0 0 1 1 1.61 1.56 1.56 0 0 0 .85.71 3.26 3.26 0 0 1 1 .49 2.25 2.25 0 0 0 1.39.56 4.05 4.05 0 0 1 1.82.54c.43.25.57.2 1-.16s.75-.7 1.15-1a1.54 1.54 0 0 1 .7-.29 28.78 28.78 0 0 1 3.83 0 1.82 1.82 0 0 1 1.07.37 1.92 1.92 0 0 0 2.15.18 1 1 0 0 1 1 0 2.9 2.9 0 0 0 1.47.4l1.92.05a2.79 2.79 0 0 1 1.45.43c.21.13.42.27.65.4a2.59 2.59 0 0 0 1.86 0 9.75 9.75 0 0 0 1-.57 1.71 1.71 0 0 1 .72-.24c1.15-.11 2.3 0 3.45-.1a3.12 3.12 0 0 0 1.43-.48 2.29 2.29 0 0 1 1.43-.47h.39a3.64 3.64 0 0 1 2.53.67 1.4 1.4 0 0 0 1.44-.1 1.66 1.66 0 0 0 .3-.24c.3-.24.59-.48.88-.74a1.82 1.82 0 0 1 .65-.4 5.1 5.1 0 0 0 1.7-.84 1.43 1.43 0 0 1 1.45.1 6.75 6.75 0 0 1 .59.47c.56.52 1.11 1.06 1.66 1.59s1.1 1.36 2.13.88z" transform="translate(0 -315)"/><path class="cls-1" d="M0 335.13a4.77 4.77 0 0 1 1.13-.19h5a16.22 16.22 0 0 1 3 .12 2.43 2.43 0 0 1 .67.36c0 .24.09.49.1.74a1 1 0 0 1-.12.36c-.12.22-.25.44-.36.67a2.9 2.9 0 0 0-.13 1.81 1.12 1.12 0 0 0 .82.68 9.63 9.63 0 0 0 1.52.1c2.3 0 1.59-.06 3.44 1.24a.5.5 0 0 1 .17.3c.09.34-.05.46-.39.51a12.89 12.89 0 0 1-1.52.07c-1.66 0-3.31 0-5 .05a2 2 0 0 0-1.09.32c-.1.07-.22.11-.33.18a2.31 2.31 0 0 1-1.08.33c-.38 0-.76.05-1.14.05a2.9 2.9 0 0 0-1.78.58 1.66 1.66 0 0 1-.7.29 4.31 4.31 0 0 1-2.21-.14zM718.13 379.74a2.6 2.6 0 0 0 1.81-.47 1.21 1.21 0 0 1 .31-.21 6.93 6.93 0 0 1 .72-.26 1.71 1.71 0 0 0 .68-.32c.39-.34.78-.67 1.14-1a3.08 3.08 0 0 1 1.31-.75 1 1 0 0 0 .36-.14 3.71 3.71 0 0 1 2.48-.82 2.25 2.25 0 0 0 1-.46 2.21 2.21 0 0 1 1.08-.36c.76 0 1.53-.05 2.29-.06a2.55 2.55 0 0 0 1.44-.44 4.46 4.46 0 0 1 1-.57 4.65 4.65 0 0 0 1.33-.73 2 2 0 0 1 .7-.31 3.76 3.76 0 0 0 1.37-.65 1.57 1.57 0 0 1 .71-.23 20 20 0 0 1 2.68 0 2 2 0 0 1 1.6.89.77.77 0 0 1 .13.72 2.69 2.69 0 0 1-1.25 1.39c-.63.35-.63.36-.4 1.15a4.67 4.67 0 0 1 .17.74 2.55 2.55 0 0 1-.51 2.16 1.25 1.25 0 0 0-.29.69 8.72 8.72 0 0 0 0 1.91 17.1 17.1 0 0 1-11.16 4.57c-2.15 1.58-4.78 1.4-7.2 2l.13-.07c-3 1.6-5.39-.1-7.41-1.85s-1.25-4.7 1.27-5.72c.8-.43 1.74-.31 2.51-.8zM1538.28 364.93H1531.01a2.42 2.42 0 0 1-1.42-.5 3 3 0 0 0-1.79-.56c-.64 0-1.27 0-1.91-.07a1.17 1.17 0 0 1-1.12-.85 2.22 2.22 0 0 1-.09-.37 6.22 6.22 0 0 0-.46-1.84 1 1 0 0 1 .23-1 2 2 0 0 1 1.67-.75h11.1c.5 0 .53 0 1.42.48a3.6 3.6 0 0 0 .68.34 5.74 5.74 0 0 1 1.7.84 1.31 1.31 0 0 0 .72.23h1.15a3 3 0 0 0 1.81-.49.61.61 0 0 1 .7-.06 3.47 3.47 0 0 0 1.8.56l1.15.05a1.69 1.69 0 0 1 1.05.38 4 4 0 0 0 2.13.76c.88 1.74-.27 1.86-1.52 1.87h-7.89c-1.4-.1-2.76-.12-3.84.98zM744.72 383.43a4.79 4.79 0 0 0-.58-1 1.37 1.37 0 0 1 .1-1.43l.24-.29a8.09 8.09 0 0 1 1.33-1.35 2.77 2.77 0 0 1 1-.57 1.31 1.31 0 0 0 1-1 2.85 2.85 0 0 1 1.07-1.52 2 2 0 0 1 1-.47c1.14-.11 2.28 0 3.42-.08a2.43 2.43 0 0 0 1.45-.39c.23-.11.45-.24.67-.34a1.25 1.25 0 0 1 .37-.09 14 14 0 0 1 3 0 1.92 1.92 0 0 1 1 .44 2.31 2.31 0 0 1 1 1.58c0 .25 0 .5.07.75a2.51 2.51 0 0 0 .41 1 2.53 2.53 0 0 1 .34 2.17 1.18 1.18 0 0 1-1.12.84l-2.66.13a1.39 1.39 0 0 0-.71.23 4 4 0 0 1-.67.37 2.35 2.35 0 0 1-.72.2c-.89 0-1.78 0-2.66.06l-2.28.06a1.13 1.13 0 0 0-.69.29c-.39.32-.75.69-1.15 1a1.22 1.22 0 0 1-1.41.13c-.7-.88-2.05.23-2.82-.72zM1594 373.34a1.84 1.84 0 0 1-.35-.15c-.42-.29-.83-.58-1.24-.89a2.11 2.11 0 0 0-1-.37 2.72 2.72 0 0 0-1.82.42 1.32 1.32 0 0 1-.33.18 1.48 1.48 0 0 1-1.44-.08 3.08 3.08 0 0 0-1.79-.55c-1.14 0-2.28 0-3.42-.09a1.67 1.67 0 0 1-1-.44 2.85 2.85 0 0 0-1-.52 3.72 3.72 0 0 1-1.73-1.43 1.15 1.15 0 0 1-.13-.34.87.87 0 0 1 .39-1c.56-.28 1.17-.47 1.71-.81.33-.2.35-.18 1 .2a2.82 2.82 0 0 0 .68.32 3.74 3.74 0 0 1 1.36.66 1.23 1.23 0 0 0 .7.28c.88 0 1.77.07 2.66.09a2.82 2.82 0 0 1 1.43.46 2.52 2.52 0 0 0 1.44.41h1.9a3.27 3.27 0 0 0 1.8-.53 2.73 2.73 0 0 1 2.2-.21 1.5 1.5 0 0 1 .34.16 2.91 2.91 0 0 1 1.07 1.05 1.21 1.21 0 0 1 .07 1.11 2.67 2.67 0 0 1-1.33 1.3c-.57.27-1.2.39-1.76.71-.14.08-.28.05-.41.06z" transform="translate(0 -315)"/><path class="cls-1" d="M718.13 379.74c-.47.86-.46.88-1.34 1.2a4.15 4.15 0 0 0-1.51 1.11 1.16 1.16 0 0 0-.31.67A6.14 6.14 0 0 0 715 385a.9.9 0 0 0 .47.56 7 7 0 0 1 1.36.64 2.36 2.36 0 0 0 1.39.52 2.75 2.75 0 0 1 1.76.61 3.17 3.17 0 0 0 1.37.59 2.26 2.26 0 0 1 .37.11 1.56 1.56 0 0 1-.1.37 7.17 7.17 0 0 0-.83 1.69 1.06 1.06 0 0 1-.84.7 2.87 2.87 0 0 1-1.51-.06 1.76 1.76 0 0 1-.65-.4 2.7 2.7 0 0 0-1-.52 2.35 2.35 0 0 1-1-.55l-1.69-1.54c-.43-.4-.64-.42-1.39-.2h.07c0-.51 0-1-.09-1.51a1 1 0 0 0-.57-.92 6.51 6.51 0 0 1-1.33-.7c-.39-.31-.86-.52-1.28-.8a.54.54 0 0 1-.18-.33.51.51 0 0 1 .06-.34 6 6 0 0 1 1-1.13c.54-.54 1.05-1.1 1.6-1.63a1.38 1.38 0 0 1 .67-.31 11 11 0 0 1 1.52-.12 2.68 2.68 0 0 0 1.76-.59 4.21 4.21 0 0 1 1-.56l.13 1.06zM778.87 373.74l1.7.05a2 2 0 0 1 1.33.62c.18.17.37.34.54.53a2.93 2.93 0 0 1 .56 1 1 1 0 0 0 .77.75 2.7 2.7 0 0 1 1.44 1.15.75.75 0 0 1 0 1 6.76 6.76 0 0 1-.52.55 1.17 1.17 0 0 1-.67.32 2.92 2.92 0 0 1-2.18-.35 2.57 2.57 0 0 0-1.41-.48l-1.51-.08a2.11 2.11 0 0 1-1.06-.37 2.46 2.46 0 0 0-.64-.38 3.92 3.92 0 0 1-2.11-1.52 1.68 1.68 0 0 1-.28-.69 4.67 4.67 0 0 1 0-.75 1.19 1.19 0 0 1 .49-1 1.29 1.29 0 0 1 .69-.29 25.46 25.46 0 0 1 2.86-.06zM1604.57 378.84h-4.94a7.31 7.31 0 0 1-1.14-.1.94.94 0 0 1-.6-.39 1.44 1.44 0 0 1 0-1.1 4.26 4.26 0 0 1 .68-.9 1.84 1.84 0 0 1 1-.48 4.9 4.9 0 0 1 .76-.08h8.74a9.63 9.63 0 0 1 1.52.11 1 1 0 0 1 .84.64 2.41 2.41 0 0 1 0 1.48 1 1 0 0 1-.79.71 3.88 3.88 0 0 1-1.13.12h-4.94zM728.59 385.71a1.66 1.66 0 0 1 1.19-.83 2.5 2.5 0 0 1 .38-.06 2.78 2.78 0 0 0 1.75-.61 3.11 3.11 0 0 1 1-.49 2.92 2.92 0 0 0 1-.53 1.76 1.76 0 0 1 1-.41c.88 0 1.77 0 2.66-.1a1.72 1.72 0 0 0 1-.37 5.5 5.5 0 0 1 1.3-.77 1.94 1.94 0 0 1 0 .34 2.83 2.83 0 0 0 .28 1.64c-.53.34-1.07.66-1.59 1s-1 .29-1.37.58a6.3 6.3 0 0 1-1.69.82 2.94 2.94 0 0 0-1.53 1.57c0 .12-.09.24-.14.35a1.28 1.28 0 0 1-1.43.95h-.37a1.79 1.79 0 0 1-1.34-.57 3.47 3.47 0 0 1-.66-.91 1.93 1.93 0 0 0-1.19-.8l-.11.17-.19-.07a.59.59 0 0 1-.23-.6c.15-.19.21-.3.28-.3zM769.58 378.86c-.31 0-.69-.07-1.06-.15a.78.78 0 0 1-.56-.45c-.19-.46-.34-.95-.55-1.4a1.08 1.08 0 0 1 0-1.07 9.89 9.89 0 0 0 .57-1.39 1.23 1.23 0 0 1 1.32-.46 2.54 2.54 0 0 1 .65.35 2.51 2.51 0 0 0 1 .53 3.3 3.3 0 0 1 1.76 1.35 1.27 1.27 0 0 1-.06 1.41 6.81 6.81 0 0 1-.81.8 1.76 1.76 0 0 1-1 .43 11.09 11.09 0 0 1-1.26.05zM750.32 373.78a11.22 11.22 0 0 1-2.48-.14 1.34 1.34 0 0 1-.79-.74 3.06 3.06 0 0 1 0-1.13 1.3 1.3 0 0 1 .76-.76 4.46 4.46 0 0 1 1.14-.15h5.35a2.81 2.81 0 0 1 .75.13c.11 0 .2.15.3.21a.65.65 0 0 1 .3.66 1.12 1.12 0 0 1-.22.7c-.25.28-.53.55-.8.81a1.31 1.31 0 0 1-.69.3 4.78 4.78 0 0 1-.76.08zM1552.51 362c.37-.08.74-.18 1.12-.25a2.24 2.24 0 0 0 1-.52 2.43 2.43 0 0 1 3.36.47c.13.21.24.44.35.66a5.73 5.73 0 0 1-.39.64 7.92 7.92 0 0 1-1.63 1.59 1.44 1.44 0 0 1-.7.28 8.62 8.62 0 0 1-1.9 0 2 2 0 0 1-1.33-.64c-.49-.74-.68-1.5.12-2.23zM1608.57 371.9h-.38a2.19 2.19 0 0 1-2.14-1.23.79.79 0 0 1 0-.72 1.69 1.69 0 0 1 .19-.32 14 14 0 0 1 1.66-1.51 1.42 1.42 0 0 1 1.42 0 9.14 9.14 0 0 1 1.65 1.52 1 1 0 0 1-.09 1.35c-.08.1-.16.19-.23.29a1.54 1.54 0 0 1-1 .51 2.35 2.35 0 0 1-.37.05h-.75z" transform="translate(0 -315)"/><path class="cls-1" d="M792.44 374.16c-.62.15-1.25.25-1.85.44a1.51 1.51 0 0 0-1 1.06 5.42 5.42 0 0 0-.17 1.13c0 .63-.07 1.26-.15 1.89a2.86 2.86 0 0 1-1.12 1.92 2.68 2.68 0 0 1-1.38.59 6 6 0 0 1-2.27-.14 4.77 4.77 0 0 1 .72-.26c.37-.07.75-.08 1.13-.13a2.32 2.32 0 0 0 1.89-1.13 2.12 2.12 0 0 0 .32-.68 2.82 2.82 0 0 0 .09-.76 14.8 14.8 0 0 0-.08-3 1.08 1.08 0 0 0-.64-.88c-.35-.14-.71-.26-1-.42a.86.86 0 0 1-.44-.58 1 1 0 0 1 .61-.38 1.87 1.87 0 0 1 1.47.18 3.53 3.53 0 0 0 2.14.69c.25 0 .51 0 .76.05a1.87 1.87 0 0 1 .97.41zM810.23 371.83h1a2.61 2.61 0 0 1 1 .23v.49a9.36 9.36 0 0 0-1.7.93 1.31 1.31 0 0 1-.62.63l-.06.07c-1.86 1.37-1.48-1.21-2.45-1.4h-4.8a8.22 8.22 0 0 1-1.1-.12l.77-1.52a2.49 2.49 0 0 1 .68.24 1.94 1.94 0 0 0 1 .37 7.74 7.74 0 0 0 1.8 0 2.73 2.73 0 0 0 1-.37l.3-.21a1.93 1.93 0 0 1 2.22-.12h-.07a1.4 1.4 0 0 0 1.03.78zM1552.51 362a18.85 18.85 0 0 1-.12 2.25c-1.52.1-3.06.1-4.59.1h-5.36a15.85 15.85 0 0 0-4.16.55c.14-.21.26-.43.42-.63a1.46 1.46 0 0 1 1-.51c.76-.06 1.52-.07 2.29-.07h7.63a11.24 11.24 0 0 0 1.13-.14 1 1 0 0 0 .71-.79c0-.25.06-.5.08-.75zM1618.38 376.55l-.61.41a1.5 1.5 0 0 0-.56.92 16.05 16.05 0 0 0-.27 2.93 5 5 0 0 1-.08 1.09 1.66 1.66 0 0 1-.86 1.1 4 4 0 0 1-1.4.42 1 1 0 0 1 .43-.58c.21-.13.45-.21.67-.33a1 1 0 0 0 .44-1.26 3.55 3.55 0 0 1-.3-1.07c0-.39.27-.68.39-1 0-.12.09-.24.11-.36a2.45 2.45 0 0 0-.15-1.46c-.17-.33-.39-.64-.56-1s-.19-.45-.28-.68l-.08.06a6.5 6.5 0 0 1 2.11 0 1 1 0 0 1 1 .81zM1575.64 383.37a2.43 2.43 0 0 1-.28 1.06.64.64 0 0 1-.59.39 1.25 1.25 0 0 1-.74-.09 3.65 3.65 0 0 1-1.12-1 3.37 3.37 0 0 1-.21-.31 1.25 1.25 0 0 1-.08-1.08 2 2 0 0 1 1.06-1 1 1 0 0 1 1 .09 2.2 2.2 0 0 1 .96 1.94zM270 363.79a2.86 2.86 0 0 1-1.46-.29.74.74 0 0 1-.4-.57.65.65 0 0 1 0-.37 3 3 0 0 1 .49-.52c.09-.07.24-.06.36-.09a5.47 5.47 0 0 1 1.85 0 1.45 1.45 0 0 1 .36.08c.11.05.18.16.28.23a.62.62 0 0 1 .23.66 1 1 0 0 1-.66.77c-.12 0-.24.06-.36.07s-.44.02-.69.03zM1656 372.74a3.2 3.2 0 0 1 1.81.13c.31.15.36.31.18.58a.83.83 0 0 1-.56.42l-3 .34a1.15 1.15 0 0 1 .38-.6zM744 376.8a1 1 0 0 1 .53-.87.92.92 0 0 1 1 .24.86.86 0 0 1 .17 1 1 1 0 0 1-.84.6.71.71 0 0 1-.63-.3 1.33 1.33 0 0 1-.23-.67zM1581.51 383.93a.85.85 0 0 1-.33.66 1.07 1.07 0 0 1-1 .06 1.19 1.19 0 0 1-.44-1 .94.94 0 0 1 .11-.36 1 1 0 0 1 1-.46c.38 0 .64.25.73.71-.08.14-.08.27-.07.39zM1604.52 385.87a.87.87 0 0 1-1 .8 1.23 1.23 0 0 1-.87-.6A1 1 0 0 1 1604 385a.86.86 0 0 1 .52.87zM1134 324.4a4.81 4.81 0 0 1-1.69-.81c-.11-.28-.06-.49.16-.61a.93.93 0 0 1 .35-.13c.62-.06 1.25-.1 1.87-.15zM1596.87 379.69a.54.54 0 0 1 .52.42.72.72 0 0 1-.78.92 1 1 0 0 1-.66-.23.64.64 0 0 1 0-.93 1.2 1.2 0 0 1 .32-.16.43.43 0 0 0 .6-.02zM1591.29 360.39a.62.62 0 0 1-.5.47.68.68 0 0 1-.85-.49.45.45 0 0 1 .32-.58 1 1 0 0 1 .73 0 .45.45 0 0 1 .3.6zM1613 379.72a.56.56 0 0 1 .47.47.72.72 0 0 1-.55.79 1 1 0 0 1-.7 0 .68.68 0 0 1-.21-1.14 2 2 0 0 1 .34-.13.43.43 0 0 0 .65.01zM469.08 394.16a.58.58 0 0 1-.5.5.94.94 0 0 1-.72-.18 2.42 2.42 0 0 1-.76-.83 2 2 0 0 1-.12-.37 1.86 1.86 0 0 1 .73.21zM744.72 383.43l2.26.4a1 1 0 0 1 .61.42 26.18 26.18 0 0 1-2.66.14q-.69.3-.39-.39a1.65 1.65 0 0 1 .18-.57zM1648 358.32a.77.77 0 0 1-.07.27.47.47 0 0 1-.6.18c-.29-.12-.33-.33-.18-.51a.54.54 0 0 1 .61-.18c.13.03.24.16.24.24zM745.49 386.5a.81.81 0 0 1-.7-.77c0-.25 0-.5-.07-.76a2.43 2.43 0 0 1 .77 1.53zM1628.08 375.26a.61.61 0 0 1-.08.25.54.54 0 0 1-.63.18c-.3-.12-.35-.32-.19-.49a.58.58 0 0 1 .64-.17c.1.03.18.15.26.23z" transform="translate(0 -315)"/><path class="cls-1" d="M1615.36 375.73a.43.43 0 0 1-.55-.32l.29-.2c.28.12.34.31.18.58zM744.72 385a.86.86 0 0 1-.73-.78l.55-.19.38.39a4 4 0 0 1-.2.58zM1522.31 362.37l-.25.21c-.07-.08-.2-.17-.2-.24s.15-.15.24-.22zM1613 379.72l-.33.09-.32-.13a1.11 1.11 0 0 1 .65.04zM1655.23 372.14a.9.9 0 0 1 .76.6.77.77 0 0 1-.76-.6zM1596.87 379.69l-.32.11-.33-.09a1 1 0 0 1 .65-.02zM852.25 372.16a3.13 3.13 0 0 1 1.09-.28l3.4-.09a1 1 0 0 0 .81-.66 1.65 1.65 0 0 0-.11-1.09 5.19 5.19 0 0 1-.67-1.33l-.07.08a17.37 17.37 0 0 0 3.06 0 1.62 1.62 0 0 0 1-.46 19 19 0 0 1 1.45-1.24 1.38 1.38 0 0 1 .71-.25c.63-.05 1.27-.05 1.91-.06s.76 0 2.2.5a.49.49 0 0 0 .56-.35 8.56 8.56 0 0 0 .22-1.89 1.46 1.46 0 0 1 .88-1.16 5.58 5.58 0 0 0 1.33-.73 1.33 1.33 0 0 1 .7-.26 17.51 17.51 0 0 1 1.91-.07 4 4 0 0 0 2.54-.68 2.27 2.27 0 0 1 .7-.27 2.82 2.82 0 0 0 1.24-.85c.17-.19.37-.35.56-.53a2.28 2.28 0 0 1 1.34-.66c.25 0 .51-.06.76-.09a.9.9 0 0 0 .87-.62 4 4 0 0 1 1.32-1.83 1.77 1.77 0 0 1 1-.44c.51 0 1-.07 1.53-.08a1.88 1.88 0 0 0 1.08-.31 3.35 3.35 0 0 1 2.16-.61h2.3a3 3 0 0 0 1.81-.5 4.21 4.21 0 0 1 1-.48 4.18 4.18 0 0 0 1-.57 2.6 2.6 0 0 1 1.44-.44 7.85 7.85 0 0 1 1.53.08 1.25 1.25 0 0 1 .75 1.18c-.1.51-.5.87-.66 1.35a1 1 0 0 0 0 .38 1.15 1.15 0 0 0 1 1c1.27.14 2.55 0 3.82.1.38 0 .75.11 1.13.17.5.29.52.6 0 .93a1.44 1.44 0 0 1-1.24.75c-.51 0-1 .06-1.53.07a1.84 1.84 0 0 0-1.07.34 4.1 4.1 0 0 1-1 .57 5.08 5.08 0 0 0-1.67.89 1.87 1.87 0 0 1-.7.28 2.2 2.2 0 0 0-.69.33c-.4.3-.78.65-1.18 1a1.8 1.8 0 0 1-1.37.57 4.16 4.16 0 0 0-1.11.25 1 1 0 0 0-.34.17c-.75.7-1.48 1.4-2.23 2.09a2 2 0 0 1-1 .45c-.37.06-.75.09-1.13.15a.8.8 0 0 0-.36.14c-.79.64-1.46 1.41-2.27 2a1.09 1.09 0 0 1-1.38.06 1.61 1.61 0 0 0-.73-.19c-.51 0-1-.05-1.53-.05a4.9 4.9 0 0 0-.76.08.89.89 0 0 0-.35.14 3.23 3.23 0 0 0-1.44 1.71 3 3 0 0 1-1.08 1.53 1.79 1.79 0 0 1-1 .4l-1.53.07a2.86 2.86 0 0 0-1.4.53 2.58 2.58 0 0 1-2.87 0c-.11-.07-.19-.18-.3-.22a1.62 1.62 0 0 0-1.47 0l-.68.35c-4.66 1-9.37.22-14.05.39-1-.05-1.82-.46-1.14-1.74zM1181.39 339.86c-.51 0-1 0-1.53-.07a2.09 2.09 0 0 1-1.07-.37 5.4 5.4 0 0 0-1-.55c-.56-.23-.64-.4-.48-.82a4.36 4.36 0 0 0 .38-1.86 2 2 0 0 0-.33-1.07c-.39-.5-.79-1-1.18-1.51-.17-.73 0-1.11.85-.83h.38c.95-.07.79 0 1.18-.73a3.53 3.53 0 0 1 1.36-1.8 1.65 1.65 0 0 1 1-.38c1.67 0 3.33 0 5-.05a3 3 0 0 0 1.82-.51 2.08 2.08 0 0 1 1.06-.37c.9-.05 1.79 0 2.69-.1a1.72 1.72 0 0 0 1-.43c.48-.42 1-.85 1.44-1.26a1.33 1.33 0 0 1 .71-.26 6.47 6.47 0 0 1 .76 0h13.44c.25 0 .5 0 .76.06a1.07 1.07 0 0 1 .88 1.07 1.8 1.8 0 0 1-.45 1c-.19.18-.34.39-.51.58a1 1 0 0 0-.18 1.37l.59 1a1.28 1.28 0 0 1-.06 1.68 6.31 6.31 0 0 1-1.88.25 2.39 2.39 0 0 0-1.38.57 2.3 2.3 0 0 1-1.41.49c-.5 0-1 .06-1.52.08a1.42 1.42 0 0 0-.71.23 5.22 5.22 0 0 1-1.72.77 2.31 2.31 0 0 0-.66.38 2.27 2.27 0 0 1-1 .39 25.36 25.36 0 0 1-3.8 0 1.37 1.37 0 0 1-1.15-.83l-.18-.34a.75.75 0 0 0-.58-.41 1 1 0 0 0-1 .37 2.47 2.47 0 0 0-.4.64 1.17 1.17 0 0 1-.94.57 5.71 5.71 0 0 1-1.89 0 2.63 2.63 0 0 1-.72-.23 10.67 10.67 0 0 0-1-.53 9.4 9.4 0 0 1-1.41-.56.85.85 0 0 0-.73 0 4.09 4.09 0 0 1-1.82.46 2.06 2.06 0 0 0-1.37.57 4.59 4.59 0 0 0-.55.53 1.41 1.41 0 0 0-.24 1.41 1.88 1.88 0 0 0 .39.65c.11.62-.05 1.04-.84.75zM1588.47 402.59a1.42 1.42 0 0 1 1.24-.74h3.44a2.42 2.42 0 0 1 1.09.25l.36.68c.05.11.08.23.14.35a1 1 0 0 0 1.31.4 3.82 3.82 0 0 0 .64-.4 24.46 24.46 0 0 0 2.17-2.15 2.47 2.47 0 0 0 .66-1.73 1.85 1.85 0 0 0-.53-1.38c-.17-.19-.36-.37-.54-.55a1.74 1.74 0 0 0-1-.48 13.46 13.46 0 0 0-2.29 0 2.37 2.37 0 0 0-1.42.47 2.34 2.34 0 0 1-1.39.56 54.76 54.76 0 0 1-5.73 0 1.15 1.15 0 0 1-.91-1 .81.81 0 0 1 .6-.85c.38-.08.75-.14 1.13-.2s.48-.19.42-.42a.48.48 0 0 0-.19-.3 1 1 0 0 1-.51-.54 1.27 1.27 0 0 1 .37-1 6.5 6.5 0 0 1 1.09-1.07.58.58 0 0 1 .7-.08 2.33 2.33 0 0 1 1.29 1.32 6.22 6.22 0 0 0 .29.71.85.85 0 0 0 .59.43 2.35 2.35 0 0 0 2.42-.75c.16-.19.37-.34.54-.53a1.9 1.9 0 0 1 1.32-.66h.38a2.71 2.71 0 0 0 1.75-.64 3.83 3.83 0 0 1 .73-.22 18.31 18.31 0 0 1 2.67 0 2.59 2.59 0 0 1 1.09.31 3.62 3.62 0 0 0 2.17.58h8.41c.25 0 .56.08.62.26s-.07.48-.37.57a8.45 8.45 0 0 1-1.12.19 2.86 2.86 0 0 0-1.73.71 1.41 1.41 0 0 1-.7.27l-1.91.11c-.34 0-.49.1-1 .52-.29 1-1.16 1.31-2 1.71a6.16 6.16 0 0 0-1 .95 6.65 6.65 0 0 0-.1 3 1.79 1.79 0 0 0 .33.68 1.89 1.89 0 0 1 .34.66 1.1 1.1 0 0 1-.29 1 1.34 1.34 0 0 1-.31.22 6.5 6.5 0 0 0-2.17 1.5 1.63 1.63 0 0 1-.62.42 7.28 7.28 0 0 0-1.72.8 2 2 0 0 1-1.08.31c-1.27 0-2.54 0-3.81.05h-5a2.86 2.86 0 0 0-2.1.72c-.24.09-.48.19-.72.26a1.18 1.18 0 0 1-.37.05c-3.18.1-6.35 0-9.53 0-.63 0-1.27 0-1.9-.07a.76.76 0 0 1-.62-.38.68.68 0 0 1 .13-.69 2.26 2.26 0 0 1 .28-.25c.64-.52 1.95-.39 1.87-1.6-.19-3.12 1.62-2.87 3.7-2.33a16.21 16.21 0 0 0 8.4-.01zM749.35 391.1a2.67 2.67 0 0 1 .93.64 1.66 1.66 0 0 1 .54 1c.06.37.08.76.14 1.14a1.12 1.12 0 0 0 1.07.9h.76a1.62 1.62 0 0 0 1-.47 3.19 3.19 0 0 0 1-1.58 1.43 1.43 0 0 1 .34-.67 7.76 7.76 0 0 1 .84-.78 1.87 1.87 0 0 1 1.06-.39h3.07a2.93 2.93 0 0 1 1.8.56 1.86 1.86 0 0 0 .69.3 6.53 6.53 0 0 0 2.29 0 2.62 2.62 0 0 0 1-.46 2.66 2.66 0 0 1 1.45-.42h2.69a3 3 0 0 1 1.8.54 2 2 0 0 0 1.06.4 6.31 6.31 0 0 1 .76.07 1.89 1.89 0 0 1 1 .45 2.76 2.76 0 0 1 .92 1.19.85.85 0 0 1-.09.73 1 1 0 0 1-.91.58c-.77 0-1.54.06-2.3.07a3 3 0 0 0-1.78.59 1.66 1.66 0 0 1-.72.24 16 16 0 0 1-2.3.09 21.81 21.81 0 0 0-2.68.07 1.64 1.64 0 0 0-1 .49c-.17.19-.35.37-.51.57a2 2 0 0 0-.4 1v1.15a2.68 2.68 0 0 0 .57 1.78c.25.29.44.63.69.92s.23.44-.1.61a1.15 1.15 0 0 1-.72.12 7.16 7.16 0 0 0-1.72-.82c-.62-.16-.71-.68-.77-1.18s-.09-1.27-.13-1.9a.73.73 0 0 0-.11-.37 3.54 3.54 0 0 0-1.38-1.28 1 1 0 0 0-.75 0 1.76 1.76 0 0 0-.66.35 2.06 2.06 0 0 1-1.4.52h-8.07a2.78 2.78 0 0 0-1.46.4l-.33.19a2.06 2.06 0 0 1-1.1.29c-1.66 0-3.32 0-5 .05h-2.3a2.34 2.34 0 0 0-1.43.5 2.64 2.64 0 0 1-1.08.35c-.89.06-1.78.09-2.68.12a1.36 1.36 0 0 0-.94.56.93.93 0 0 0-.16.35 12.18 12.18 0 0 0-.16 1.9 2 2 0 0 1-1 1.57.47.47 0 0 1-.65-.12 7.3 7.3 0 0 0-1-1.59c-.1-.23-.21-.46-.29-.7s-.16-.48-.23-.73c-.76-1-2.81.65-3.05-1.45a3.08 3.08 0 0 1 1.64-.91 1.64 1.64 0 0 0 .66-.36 1.68 1.68 0 0 1 1-.42c1.14 0 2.29-.07 3.44-.1a2.38 2.38 0 0 0 1.44-.43c.11-.07.19-.17.3-.24a2.17 2.17 0 0 1 1.07-.36l2.29-.08a2.82 2.82 0 0 0 1.44-.46 2.65 2.65 0 0 1 1.44-.44h4.59c.64 0 1.28 0 1.91-.06a1.41 1.41 0 0 0 1-.47 6.88 6.88 0 0 0 .54-.54 1.54 1.54 0 0 0 .17-1.44c-.18-.49-.62-.8-.82-1.28.08-1.43.82-1.35 1.78-.85zM1164.75 341.23a3.24 3.24 0 0 0-1.09-.31c-.39 0-.77 0-1.15-.06-.9-.05-.9-.05-2.1-.76a1.46 1.46 0 0 0-1.44.12 3.36 3.36 0 0 0-.29.24 2.56 2.56 0 0 0-.91 1.63 4.78 4.78 0 0 1-.09.76 1 1 0 0 1-.7.81 2.36 2.36 0 0 1-1.12 0c-.52-.13-.73-.36-.6-.72a2.82 2.82 0 0 0 .26-1.11 1 1 0 0 0-.65-.84c-.12 0-.24-.07-.37-.08-1.66-.1-3.32-.08-5 0a1.69 1.69 0 0 0-.38 0 1.33 1.33 0 0 0-.65.35.58.58 0 0 0-.09.69 3.2 3.2 0 0 1 .22 1.88 2.39 2.39 0 0 1-1.32 1.75 1.07 1.07 0 0 1-.35.14 2.32 2.32 0 0 1-.38.05 25.77 25.77 0 0 1-3.83 0 1.94 1.94 0 0 1-1-.41 7.84 7.84 0 0 0-1-.57.69.69 0 0 1-.24-1 2.23 2.23 0 0 1 1.46-1.11.94.94 0 0 0 .58-1.23c-.07-.25-.16-.49-.23-.73-.16-.51.23-.94.83-.94a2.54 2.54 0 0 1 .39 0 1.17 1.17 0 0 1 1.16.79 4 4 0 0 0 .28.71.94.94 0 0 0 1.33.23 1.35 1.35 0 0 0 .41-.62 10.61 10.61 0 0 0 .17-1.13 1.23 1.23 0 0 1 .27-.7 3.41 3.41 0 0 1 1.81-1.33 1.9 1.9 0 0 0 .66-.38c.67-.6 1.31-1.21 2-1.82a.86.86 0 0 1 1-.24 2.1 2.1 0 0 0 1.11.08c.36-.12.71-.24 1.06.07s.58.5.88.74a2.61 2.61 0 0 0 1 .53 3.74 3.74 0 0 1 1.33.72 2 2 0 0 0 1.46.33 1.31 1.31 0 0 0 1.29-1.15 3.85 3.85 0 0 1 .23-1.12.82.82 0 0 1 .55-.47 3.3 3.3 0 0 1 .75-.14h1.53a3.49 3.49 0 0 1 2.17.6 1.88 1.88 0 0 0 1.09.31l1.91.05c.26 0 .51.05.77.07a1.1 1.1 0 0 1 1 1c.06.37.1.75.16 1.13a1.12 1.12 0 0 0 .73.78l.69.33c.58.84.3 1.62-.61 1.59-2.35-.06-4.62.61-6.95.49zM1161 353.82h-1.53a3.05 3.05 0 0 1-1.81-.51 2.56 2.56 0 0 0-1.43-.44h-.77a3.24 3.24 0 0 0-1.81.5 2.45 2.45 0 0 1-1.44.44c-1.4 0-2.8 0-4.21.1a1.63 1.63 0 0 0-1.06.37c-.1.08-.22.13-.32.2a2.16 2.16 0 0 1-1.07.4 4.09 4.09 0 0 0-2.14.69 1.31 1.31 0 0 1-.72.23l-3.83.12a1.93 1.93 0 0 0-1.06.39 2.44 2.44 0 0 1-1 .45 6.31 6.31 0 0 1-.76.1 2.65 2.65 0 0 0-1.38.58 1.9 1.9 0 0 1-1.05.41 18.75 18.75 0 0 1-3.82 0 1.62 1.62 0 0 1-.67-.33 1 1 0 0 1 0-1.34c.11-.06.21-.15.32-.2a5.69 5.69 0 0 0 1-.44 3 3 0 0 1 1-.57 3 3 0 0 0 1-.49 3 3 0 0 1 1.76-.63l1.15-.06a2 2 0 0 0 1.08-.33 3.42 3.42 0 0 1 2.16-.62c.38 0 .76-.05 1.14-.08a1.45 1.45 0 0 0 .71-.26 3 3 0 0 1 1.79-.58l6.13-.06a1.9 1.9 0 0 0 .73-.17c.47-.2.86-.55 1.34-.73a5.55 5.55 0 0 0 1.33-.73 1.79 1.79 0 0 1 1.08-.35h3.06a2.91 2.91 0 0 1 1.8.53 2.44 2.44 0 0 0 1.43.46h1.91a2.23 2.23 0 0 0 1.44-.44 3.08 3.08 0 0 1 1.41-.53c1.79-.07 3.58-.07 5.36 0a1.26 1.26 0 0 1 .69.25c.19.15.1.74-.15 1.06a2.1 2.1 0 0 1-.57.5 2.53 2.53 0 0 1-.7.29 3.23 3.23 0 0 0-1 .52 1.71 1.71 0 0 1-.69.3 3.3 3.3 0 0 1-.76.1 3 3 0 0 0-1.75.66 1.37 1.37 0 0 1-.72.23c-.89.07-1.78.09-2.67.13zM1532.4 408.67a1.55 1.55 0 0 1 1.22-.8c.38 0 .77-.08 1.14-.15a1.3 1.3 0 0 0 .66-.36 4.65 4.65 0 0 0 1.31-1.85 1.4 1.4 0 0 1 .91-.62 21.93 21.93 0 0 1 2.29-.1 2.92 2.92 0 0 0 1.78-.56 2.46 2.46 0 0 1 1.44-.43h2.68a3.43 3.43 0 0 1 2.13.72.8.8 0 0 0 .33.17 3.18 3.18 0 0 0 1.88-.12 3.34 3.34 0 0 0 .65-.4 1.89 1.89 0 0 1 1.07-.34 3.46 3.46 0 0 1 1.84.42 1 1 0 0 0 .75.07 1.72 1.72 0 0 1 .74-.08 2 2 0 0 1 .64.41c.31.22.61.45.91.69a2.56 2.56 0 0 0 1 .44 1.72 1.72 0 0 1 .67.35 2 2 0 0 0 1.39.56 5.88 5.88 0 0 1 1.5.19c.31.11.41.32.28.58a.65.65 0 0 1-.19.26.81.81 0 0 1-.37.09l-5.36.05h-2.68a2.74 2.74 0 0 0-1.44.44 2.85 2.85 0 0 1-1.44.43h-4.21a2.57 2.57 0 0 0-1.09.3 3.54 3.54 0 0 1-2.17.62c-1.27 0-2.55 0-3.82.06a1.84 1.84 0 0 0-1.07.36 2.9 2.9 0 0 1-.64.41 2.42 2.42 0 0 1-.72.23 23.2 23.2 0 0 1-3.82 0c-.3 0-.46-.12-.91-.61-.43-.76.4-.98.72-1.43zM1554.07 393.71l1.47.07a1.71 1.71 0 0 1 1 .5c.1.08.18.17.28.26a1.09 1.09 0 0 1 .21 1.35 3.79 3.79 0 0 0-.32 1.09c-.06.63-.13 1.26-.2 1.89a1.24 1.24 0 0 1-.78.75 4.85 4.85 0 0 1-.75.11h-1.91a2.59 2.59 0 0 1-2.19-1.29 13.1 13.1 0 0 0-1.22-2.35 1.31 1.31 0 0 1 .24-1.07c.27-.27.53-.55.81-.8a1.69 1.69 0 0 1 1-.46h2.34z" transform="translate(0 -315)"/><path class="cls-1" d="M1588.47 402.59a4.06 4.06 0 0 1-2.09.76 33.64 33.64 0 0 1-4.14 0 10.72 10.72 0 0 1-1.86-.28 6.69 6.69 0 0 0-1.48-.21 1.76 1.76 0 0 0-1.53.91c-.1.23-.19.46-.28.7s-.17.47-.27.7a1.94 1.94 0 0 1-1.07 1 8.26 8.26 0 0 1-1.09.27c.19-.52.65-.69 1.1-.89a1 1 0 0 0 .61-.85 2 2 0 0 0-.21-1.42.8.8 0 0 0-.57-.41 2.32 2.32 0 0 0-1.78.25 3.68 3.68 0 0 1-.68.26 31.7 31.7 0 0 0-3.9.1 2.31 2.31 0 0 1-1-.47 1.67 1.67 0 0 0-.73-.21 2.8 2.8 0 0 0-1.83.4l-.32.2a5.76 5.76 0 0 1-.64.75c-.33.31-.39.85-.88 1a1.27 1.27 0 0 1-.66-.45c-.48-.91-1.58-.79-2.26-1.37l-1.35-.7c-.32-.16-.39-.34-.19-.55a.85.85 0 0 1 .28-.22.93.93 0 0 1 .37-.1h19.09a3.08 3.08 0 0 1 1.45.39 3 3 0 0 0 1.82.47c2.02.04 4.05.08 6.09-.03zM963.8 345.78c.64 0 1.28 0 1.91.07a1.92 1.92 0 0 1 1 .38 2.18 2.18 0 0 0 1 .42c.5.06 1 .08 1.52.09a2.23 2.23 0 0 1 2.07 1.41.5.5 0 0 1-.08.68c-.19.17-.33.39-.52.55a1.47 1.47 0 0 1-1.76.18 3.38 3.38 0 0 0-1.77-.6h-.76a3.18 3.18 0 0 1-1.8-.5 2.62 2.62 0 0 0-1.44-.41 17.33 17.33 0 0 1-2.28-.12 1 1 0 0 1-.62-.38.81.81 0 0 1 .22-1 3.33 3.33 0 0 1 .28-.25 1.81 1.81 0 0 1 1-.42zM720.91 418.13a4.67 4.67 0 0 1 1.84-.42A2 2 0 0 0 724 417a3.33 3.33 0 0 1 .25-.28 2.1 2.1 0 0 0 .48-1c.06-.24.06-.5.1-.75a1.2 1.2 0 0 1 .94-1 2.69 2.69 0 0 1 1.13 0 1.47 1.47 0 0 1 .7.27c.3.23.59.48.87.74a4.78 4.78 0 0 0 1.62.94c.56.2.71.58.6 1.21a.59.59 0 0 1-.13.35 5.19 5.19 0 0 1-.65.37c-.63.05-1.26.11-1.9.14a2 2 0 0 0-1 .41c-.51.37-1 .78-1.5 1.16a1.4 1.4 0 0 1-.71.24c-.51 0-1 .05-1.52 0a2 2 0 0 1-1.68-.74 2.4 2.4 0 0 1-.6-.94zM72.28 343.57a.93.93 0 0 1 .76-.72h.76a2.77 2.77 0 0 1 1.1.26 3 3 0 0 0 2.14.66 7.21 7.21 0 0 1 1.14.1 1.78 1.78 0 0 1 .7.28 4.4 4.4 0 0 0 1.31.76 2.76 2.76 0 0 1 1 .53 11.25 11.25 0 0 0 1.47 1.21 3.33 3.33 0 0 1 .66.38.66.66 0 0 1 .21.68 2.07 2.07 0 0 1-.66.9.87.87 0 0 1-.33.17 1.29 1.29 0 0 1-1.1-.06 5.44 5.44 0 0 0-1.36-.69 2.76 2.76 0 0 1-1-.53 2.34 2.34 0 0 0-.3-.25 6.12 6.12 0 0 0-1-.44 3.15 3.15 0 0 1-.67-.37 2.59 2.59 0 0 0-1-.48 2.7 2.7 0 0 1-1-.5 1.6 1.6 0 0 0-.69-.31L73.2 345a1 1 0 0 1-.86-.64c.21-.18.28-.35.19-.51s-.17-.28-.25-.28zM1611.51 401l.9-.7q.31-.22.63-.42a1 1 0 0 1 .35-.15 8.29 8.29 0 0 0 1.71-.79 1.45 1.45 0 0 1 1.1 0 5 5 0 0 0 1.38.61 11 11 0 0 0 1.52.05c.51 0 1-.08 1.52-.13h.5a9.21 9.21 0 0 1 3 .3c.45.31.73.68.44 1.25a12.31 12.31 0 0 0-2.27-.14 2.63 2.63 0 0 0-1.75.6 8.06 8.06 0 0 1-1.2.91 1.47 1.47 0 0 1-1.45.08c-.22-.11-.44-.24-.66-.37a1.51 1.51 0 0 0-.72-.21 22.48 22.48 0 0 0-4.92.11.69.69 0 0 1-.08-1zM737 413.65c.53 0 1 0 1.54.09a2 2 0 0 1 .72.21 1.06 1.06 0 0 1 .64.87 10.61 10.61 0 0 1 0 3 1.08 1.08 0 0 1-.38.63 1.45 1.45 0 0 1-1.44 0c-.19-.16-.4-.31-.58-.48l-2.69-2.68a2.25 2.25 0 0 1-.24-.3 1.71 1.71 0 0 1-.32-.68c0-.18.6-.61.89-.63zM1274.61 335a.93.93 0 0 1 .73.1 3.85 3.85 0 0 0 2.12.71 2.23 2.23 0 0 1 1.08.33 6.37 6.37 0 0 0 1 .51 5.23 5.23 0 0 1 1.32.7 9.43 9.43 0 0 0 1.36.65 3.23 3.23 0 0 1 1.3 1.34.75.75 0 0 1-.06.7.47.47 0 0 1-.65.2 5.29 5.29 0 0 0-1.84-.41 2.31 2.31 0 0 1-1.4-.51 1.8 1.8 0 0 0-.68-.33 3.46 3.46 0 0 1-1.36-.63.93.93 0 0 0-.31-.22 7.65 7.65 0 0 1-2-1.05 6.93 6.93 0 0 0-1-.48.89.89 0 0 1-.38-1c.1-.36.28-.51.77-.61zM273.49 381.76a3.25 3.25 0 0 1 1.77.61 1.93 1.93 0 0 0 .71.24 6.53 6.53 0 0 0 .76.08l1.14.08a1.22 1.22 0 0 1 1.06.92c0 .25.08.5.1.75a8.4 8.4 0 0 0 .54 2.57.55.55 0 0 1-.28.66 1.47 1.47 0 0 1-.7.21 1.8 1.8 0 0 1-1.42-.41 23 23 0 0 1-2.15-2.15 2.85 2.85 0 0 1-.17-.35 3.39 3.39 0 0 1-.62-.74c-.1-.21-.2-.42-.31-.62-.24-.5-.28-.53-.7-.71l-.65-.26c-.1-.72.13-1.1.92-.88zM1516.46 405.24a4 4 0 0 1-.71.88 1.56 1.56 0 0 1-.59.47 9.89 9.89 0 0 0-2 1.06 1.43 1.43 0 0 1-.73.2 30.19 30.19 0 0 1-3.43 0 1 1 0 0 1-.38-.06 3.6 3.6 0 0 1-.62-.39.66.66 0 0 1-.15-.35.92.92 0 0 1 .28-1c.1-.08.18-.2.29-.23a5.22 5.22 0 0 0 1.36-.67 2.26 2.26 0 0 1 1.09-.32c.76 0 1.52 0 2.28-.06a3.27 3.27 0 0 0 1.79-.59c1.14-.56 1.69-.27 1.52 1.06zM1543.23 413.23c.36.13.71.28 1.07.39a2.79 2.79 0 0 0 1.49 0 .81.81 0 0 0 .34-.15c.59-.48 1.16-1 1.77-1.43a1.39 1.39 0 0 1 1.08-.18 1 1 0 0 1 .34.18 4.58 4.58 0 0 0 1.34.68 1.07 1.07 0 0 1 .72 1.47.55.55 0 0 1-.53.46c-.25 0-.5.11-.74.11h-10.62a6.42 6.42 0 0 1-.75-.1 1.28 1.28 0 0 1-.14-.35.45.45 0 0 1 .14-.27.94.94 0 0 1 .32-.19l1.81-.55a12.4 12.4 0 0 0 2.36-.07zM712.32 422.66c-.38-.33-.79-.63-1.13-1a4.15 4.15 0 0 0-1.58-1 1.06 1.06 0 0 1-.67-1.19 1.31 1.31 0 0 1 .61-.9 1.26 1.26 0 0 1 1-.41.83.83 0 0 1 .36.08 2.45 2.45 0 0 0 1.42.38 7.77 7.77 0 0 1 1.86.18 1.05 1.05 0 0 1 .52.5 1.26 1.26 0 0 1 .1.36 6.82 6.82 0 0 1 .05 1.86 1.84 1.84 0 0 1-.35 1.05 4.39 4.39 0 0 0-.63 1.35c-1.42.66-.7-1.24-1.56-1.26zM714.86 433.18a2.24 2.24 0 0 1-1 2 2.17 2.17 0 0 1-.67.36 1.14 1.14 0 0 1-.75 0 1.43 1.43 0 0 1-.34-.14 2.46 2.46 0 0 1-1.21-1.42 8.68 8.68 0 0 0-.82-1.71 1.16 1.16 0 0 1 0-1.1 4.91 4.91 0 0 1 1-1.16 1.33 1.33 0 0 1 1.42-.08 15.5 15.5 0 0 1 1.66 1.58 2.15 2.15 0 0 1 .71 1.67zM1133.56 341.84c.64 0 1.27 0 1.9.05a2.36 2.36 0 0 1 1.67.8 2 2 0 0 1 .47.59 1.27 1.27 0 0 1-.06 1.09 1.19 1.19 0 0 1-.56.47 1.63 1.63 0 0 1-.37.08 13.91 13.91 0 0 1-2.66 0 1.8 1.8 0 0 1-1.06-.35 4 4 0 0 0-2.1-.79.93.93 0 0 1-.35-.13 2.17 2.17 0 0 1-.33-.19 1.2 1.2 0 0 1-.16-1.07 1.17 1.17 0 0 1 .59-.43 2.67 2.67 0 0 1 .75-.11h2.27zM852.25 372.16c.17.19.33.38.51.56a1.67 1.67 0 0 0 1 .47 11 11 0 0 0 1.51.12h8.36c1.27 0 2.53 0 3.8.1a1.88 1.88 0 0 1-1 .42c-.76 0-1.52.06-2.29.06h-8c-.89 0-1.78 0-2.67.05a2.41 2.41 0 0 0-1.42.46l-1.23.9a.76.76 0 0 1-1-.09 4.51 4.51 0 0 1-.53-.54 1.2 1.2 0 0 1-.26-1.06 1 1 0 0 1 .7-.81 1.61 1.61 0 0 1 .37-.07 5.62 5.62 0 0 0 2.15-.57zM728.59 385.71v.91a2.63 2.63 0 0 0-.72 1.73 2.32 2.32 0 0 1-.15.74.8.8 0 0 1-.51.52 2.26 2.26 0 0 1-.37.11 6.79 6.79 0 0 1-1.91 0 1.92 1.92 0 0 1-1-.43c-.29-.25-.6-.47-.9-.71a2.6 2.6 0 0 0-1.41-.53c.12-.22.24-.43.37-.64a1.47 1.47 0 0 1 .87-.64 3.6 3.6 0 0 1 .73-.13 2.72 2.72 0 0 0 1.36-.53 1.81 1.81 0 0 1 1-.36zM763.92 409.51v.77a2.32 2.32 0 0 1-.4 1.43 6.28 6.28 0 0 0-.58 1 .79.79 0 0 1-1.22.37c-.1-.08-.22-.14-.31-.22a22 22 0 0 1-1.86-1.88 1.1 1.1 0 0 1 .05-1.37 3.45 3.45 0 0 0 .26-.28 1.4 1.4 0 0 1 1-.52 8 8 0 0 0 2.21-.47.59.59 0 0 1 .81.47c-.01.19.02.46.04.7zM1243.29 336.84H1241a6.84 6.84 0 0 0-2.56.55.54.54 0 0 1-.64-.22c-.26-.43-.36-.94-.65-1.36s-.18-.57.17-1c.55-.7.89-.72 1.59-.29s1.47.41 2 1a1.55 1.55 0 0 0 1.45 0l.33-.18a2 2 0 0 1 .31-.2 1.43 1.43 0 0 1 1.44 0 3.39 3.39 0 0 0 2.13.66 3.08 3.08 0 0 1 .74.11c.11 0 .19.13.28.21.29.27.23.43-.17.49s-.49.12-.74.13l-3.41.07zM721 418a5.33 5.33 0 0 0-1.13-.18c-1.27-.06-2.54 0-3.81-.1l-.37-.07a1.3 1.3 0 0 1-.73-.8 2.69 2.69 0 0 1 0-1.13.92.92 0 0 1 .68-.81 2.6 2.6 0 0 1 1.86.06.89.89 0 0 1 .33.18 2.15 2.15 0 0 0 1 .5 2.88 2.88 0 0 1 1.76 1.37 2.65 2.65 0 0 1 .35 1.07zM1554 413.34a6 6 0 0 1-.13-.72 1 1 0 0 1 .71-.76c.37 0 .73-.11 1.1-.12h4.49a4.24 4.24 0 0 0 1.44-.32c.57-.22.92.17.77.79a.71.71 0 0 1-.13.35c-.25.27-.53.53-.79.79-.46.81-1.7 0-2.07 1l.08-.07a1.65 1.65 0 0 1-1.75-.07l.07.05c-1.1-1.18-2.72.07-3.79-.92zM1560.81 396.56h.37c.36 0 .74 0 1-.36a1.49 1.49 0 0 0 .26-.68 3.13 3.13 0 0 1 .24-1.08 1 1 0 0 1 .5-.51 2.33 2.33 0 0 1 1.45-.15 1.11 1.11 0 0 1 .94 1c0 .5 0 1 .07 1.48 0 1.52-.83 1.48-1.89 1.11a1.64 1.64 0 0 0-1.42.27 4.64 4.64 0 0 1-.72.23 3.13 3.13 0 0 1-.75 0 1.15 1.15 0 0 1-.92-.56.88.88 0 0 1 .87-.75zM40.08 343.35a6.29 6.29 0 0 0 2 .1 1.79 1.79 0 0 0 1.55-.43 7.18 7.18 0 0 0 2.59.58 3.22 3.22 0 0 1 .75.1.85.85 0 0 1 .36.12.76.76 0 0 1 .23.3.61.61 0 0 1-.08.68 1 1 0 0 1-.7.26c-.64 0-1.27.06-1.91.07h-6.49c-.38-1.46.83-1.47 1.7-1.78zM730 429.74a9.84 9.84 0 0 1-.11 2 1.44 1.44 0 0 1-.16.33 1 1 0 0 1-1.58.18c-.08-.09-.2-.18-.22-.29-.1-.49-.16-1-.27-1.47a12.67 12.67 0 0 0-.64-1.34 1.24 1.24 0 0 1 .1-1.08 5.94 5.94 0 0 1 .76-.83c.25-.26.62-.23 1 .06a4.39 4.39 0 0 1 .57.48 1.4 1.4 0 0 1 .5 1c.05.36.05.74.05.96zM711.66 401.74a.88.88 0 0 1 .75-.7c2.36-.1 4.86-1.43 7 .79a1.89 1.89 0 0 1-.78.59 3.09 3.09 0 0 1-.7.25 14.72 14.72 0 0 1-1.49.08 2.44 2.44 0 0 0-1.7.63 1.22 1.22 0 0 1-1.38.14 3.28 3.28 0 0 1-.31-.2 5.37 5.37 0 0 0-1.29-.75c-.58-.24-.6-.52-.1-.83zM933 355.13a1.77 1.77 0 0 1-1.28.72c-.5 0-1 .07-1.52.08a2.89 2.89 0 0 0-1.41.5 2.37 2.37 0 0 1-1.43.41 2 2 0 0 1-2-.93.89.89 0 0 1 0-1l.45-.6a1.25 1.25 0 0 1 1.37-.36 2.21 2.21 0 0 1 .34.18c.88 1.08 2 .5 3 .4l.08-.08a.55.55 0 0 1 .66-.37c.41.14.83.24 1.24.39a1.27 1.27 0 0 1 .5.66zM1164.75 341.23c.59-.16 1.19-.3 1.77-.49a8.42 8.42 0 0 1 2.17-.36 14.57 14.57 0 0 0 2.19-.15 1.68 1.68 0 0 0 1-.49l.46-.57a2.33 2.33 0 0 0 1.81-.16.74.74 0 0 1 .37-.06.84.84 0 0 1 .68.21.56.56 0 0 1-.05.69l-.21.31a1.72 1.72 0 0 1-1.24.76c-.62.05-1.25.07-1.88.08h-3.38a2.85 2.85 0 0 0-1.75.58 1.06 1.06 0 0 1-.34.16 1.47 1.47 0 0 1-1.09 0 1.09 1.09 0 0 1-.51-.51zM831.46 368.94a1.1 1.1 0 0 1 .8 0c.27.23.54.45.83.66.53 1.45-1.54.92-1.52 2a.67.67 0 0 1-.86.23l-.87-.6a9 9 0 0 1-1.23-.89 2.06 2.06 0 0 0-1-.44 13.85 13.85 0 0 1-2.65-.19.89.89 0 0 1-.53-.51 3.37 3.37 0 0 1 .31-.21 1.26 1.26 0 0 1 .34-.13 22.15 22.15 0 0 1 3.82 0 1.77 1.77 0 0 1 1.06.37 7 7 0 0 0 .64.41 3.73 3.73 0 0 0 .86-.7zM769.83 398.86a1.08 1.08 0 0 1 1 1v.37a2.23 2.23 0 0 1-1.15 2.18 1.4 1.4 0 0 1-1.06.18.58.58 0 0 1-.56-.42 2.52 2.52 0 0 1-.15-.34 5 5 0 0 1 .06-2.22 1 1 0 0 1 .78-.7 3.08 3.08 0 0 1 1.08-.05zM737.83 428.15s0 .36-.07.73a1 1 0 0 1-.8.65 1.66 1.66 0 0 1-1-.34 2.92 2.92 0 0 0-.29-.23 1.86 1.86 0 0 1-.78-1.6c0-.25 0-.49.08-.73a1 1 0 0 1 .7-.78 2.55 2.55 0 0 1 1.1-.1 1.09 1.09 0 0 1 1 .91c0 .12.07.24.08.36s-.02.5-.02 1.13zM1568.65 394.18a3.26 3.26 0 0 1 .66-.91 2.21 2.21 0 0 1 1.32-.65 12.71 12.71 0 0 1 3 .05.6.6 0 0 1 .51.44.5.5 0 0 1-.29.63 2.11 2.11 0 0 1-.7.26 7.55 7.55 0 0 0-1.49.22c-.35.13-.68.31-.73.76 0 .25-.09.49-.14.74a2 2 0 0 1-.53 1 1.11 1.11 0 0 1-.77-.42 8.91 8.91 0 0 1-.36-1.32 5.64 5.64 0 0 0-.48-.8zM725.56 399.59a4.64 4.64 0 0 0 1.75.72 4.79 4.79 0 0 1 .73.24 1.41 1.41 0 0 1 .57.49h-5.72a10 10 0 0 0-1.89.17 1.34 1.34 0 0 1-1-1 1.75 1.75 0 0 1 1.26-.61 37.14 37.14 0 0 1 4.3-.01zM757.94 425.48a13.63 13.63 0 0 1-.11 2.17c-.06.32-.2.48-.48.44a.52.52 0 0 1-.3-.12c-.29-.42-.54-.86-.83-1.28a2.49 2.49 0 0 1-.43-1.81 2.1 2.1 0 0 1 1.33-1.7.55.55 0 0 1 .61.32 1.25 1.25 0 0 1 .13.35c.04.64.07 1.27.08 1.63zM730.21 437.77a1.24 1.24 0 0 1-1.35-1.06 5.71 5.71 0 0 1 0-1.89.73.73 0 0 1 .85-.51 2.32 2.32 0 0 1 1.09 1c.07.64.49 1.17.55 1.82a.47.47 0 0 1-.42.52c-.21.08-.47.09-.72.12zM743.45 427.73h1.12a2.25 2.25 0 0 1 1.87 1.06.45.45 0 0 1-.06.65 1.84 1.84 0 0 1-.62.4c-.58.23-1 .74-1.59.95a1.14 1.14 0 0 1-1-.35 2.11 2.11 0 0 1-.21-.31c-.2-.45-.39-.92-.58-1.38-.18-.92.23-1.19 1.07-1.02z" transform="translate(0 -315)"/><path class="cls-1" d="M1568.65 394.18h.65c.65.59.11 1.53.63 2.15l.35.35c-.16.2-.3.41-.48.6a2 2 0 0 1-1.31.68 28.05 28.05 0 0 1-3.43 0 1.73 1.73 0 0 1-1.32-.63 3.1 3.1 0 0 0 1.89-1.11l.75.14a3.3 3.3 0 0 0 1.13 0 1 1 0 0 0 .78-.73 13.11 13.11 0 0 1 .36-1.45zM720.07 407.28c-.52-.25-.68-.38-.81-.72a.6.6 0 0 1 .47-.85 8.62 8.62 0 0 1 1.13-.1 5.77 5.77 0 0 0 2.21-.44.48.48 0 0 1 .66.2 1 1 0 0 1 .17.7 1.07 1.07 0 0 1-.14.35 4 4 0 0 1-1 1.13 2.46 2.46 0 0 1-2.16.24.78.78 0 0 1-.3-.21 1.66 1.66 0 0 1-.22-.3c.07-.06-.02.01-.01 0zM40.08 343.35a5.05 5.05 0 0 1-1.17 1.31 4.72 4.72 0 0 0-.5.5.87.87 0 0 1-1 .33.69.69 0 0 1-.41-.49c-.07-.24-.17-.48-.26-.71s-.21-.46-.33-.68a.53.53 0 0 1 .12-.69c.77-.8 1-.86 2-.37a2.52 2.52 0 0 0 .71.26 1.38 1.38 0 0 1 .67.31 2.18 2.18 0 0 1 .17.23zM1516.46 405.24a4.25 4.25 0 0 0-1.53-1.09 1.2 1.2 0 0 1 .64-.37 7.11 7.11 0 0 1 1.9 0 1.76 1.76 0 0 1 1 .39 2.67 2.67 0 0 0 1.74.66 1.16 1.16 0 0 1 .7.26c.17.15.15.41-.11.57-.44.26-.91.44-1.37.66s-.54.18-1-.19c-.1-.08-.19-.17-.29-.24a2 2 0 0 0-1.68-.65zM720 400.19a7.3 7.3 0 0 1 1 1c-.33.43-.52.58-.88.62s-.5 0-.75 0a4.84 4.84 0 0 0-2.14-.57h-3a11.48 11.48 0 0 1-1.85-.18 2.35 2.35 0 0 1 1.08-.36l4.21-.07a6.6 6.6 0 0 0 2.33-.44zM1501.59 407.86a.67.67 0 0 1-.31.63 1.18 1.18 0 0 1-.68.25 2.18 2.18 0 0 1-.71-.18 11.47 11.47 0 0 0-1.29-.71.61.61 0 0 1-.39-.54c0-.3.11-.45.41-.53a4.17 4.17 0 0 1 2.19 0 1 1 0 0 1 .78 1.08zM1210 333.6l.06-1.68h3.44a1.6 1.6 0 0 1 1.07.33c.39.34.91.46 1.28.8.08.07.18.21.16.29a.46.46 0 0 1-.26.27 3.42 3.42 0 0 1-2.93-.18l-.33-.19a1.43 1.43 0 0 0-1.45-.07 2.69 2.69 0 0 1-1.04.43zM724.19 436.42c.48 1.14.37 1.33-.82 1.37a2.42 2.42 0 0 1-.38 0 1.58 1.58 0 0 1-.36-.09 1 1 0 0 1-.7-1.16 1.82 1.82 0 0 1 1.2-1.32c.29-.15.49-.09.62.19 0 .11.12.22.16.33s.19.44.28.68zM704.65 424.72h.37a.93.93 0 0 1 .77.69 1 1 0 0 1-.29 1 1.33 1.33 0 0 1-.65.32 3.19 3.19 0 0 1-1.11 0 1 1 0 0 1-.74-.73.89.89 0 0 1 .57-1.17 2.34 2.34 0 0 1 1.08-.11zM1624.56 401.07a4 4 0 0 0-1-.91c-.78-.47-1.76 0-2.53-.52a1.57 1.57 0 0 0-.43-.15 1.32 1.32 0 0 1 1.21-.7h1.49a1.83 1.83 0 0 1 1.06.3 5.17 5.17 0 0 0 1.31.7.89.89 0 0 1 .28 1 1.61 1.61 0 0 1-.52.52 1.26 1.26 0 0 1-.34.13c-.23.04-.42-.08-.53-.37zM781.79 392.85a.75.75 0 0 1 .57-.64.65.65 0 0 1 .68.19c.18.18.37.34.54.52a1.06 1.06 0 0 1 .25.7v.36c0 .61-.9 1-1.43.71a1.22 1.22 0 0 1-.61-.89c-.01-.25 0-.5 0-.95zM931.41 354.47a3.8 3.8 0 0 1-.75-.06 1.71 1.71 0 0 1 1.22-.79 10.06 10.06 0 0 1 3 .06c.3.05.67.55.57.83a.75.75 0 0 1-.54.47 5.62 5.62 0 0 1-1.87.15 1 1 0 0 1-.49-.07c-.27-.41-.77-.38-1.14-.59zM1569.23 403.49c.21-.14.43-.28.65-.4a2.69 2.69 0 0 1 2.58-.07 7.44 7.44 0 0 1 .67.37 1.18 1.18 0 0 1-.65.32 11 11 0 0 1-2.57 0 1.55 1.55 0 0 1-.68-.22zM1555.94 389.59a4.76 4.76 0 0 1 1.92.19c.3.11.4.26.3.57a.73.73 0 0 1-.45.52 3.88 3.88 0 0 1-2.19 0 .74.74 0 0 1-.46-.51c-.11-.3 0-.47.29-.58a2.26 2.26 0 0 1 .7-.19c.24-.01.49 0-.11 0zM1181.39 339.86l.88-.79c.5.12.91.46 1.42.55s.76.11 1.13.19a.57.57 0 0 1 .3.23.53.53 0 0 1-.09.64.79.79 0 0 1-.33.2 4.67 4.67 0 0 1-2.26 0 1.27 1.27 0 0 1-.65-.38 1.82 1.82 0 0 1-.4-.64zM1526.17 404.81a6.18 6.18 0 0 1 1.49.05 1 1 0 0 1 .64.35.83.83 0 0 1 .18.69.88.88 0 0 1-.75.7 1.19 1.19 0 0 1-.72-.09 6.09 6.09 0 0 0-2.06-.84.74.74 0 0 1-.51-.48 1.17 1.17 0 0 1 .61-.33 2.2 2.2 0 0 1 .37-.05zM273.49 381.76a4.26 4.26 0 0 0-.92.88c-.63-.09-1.1-.56-1.72-.7a1 1 0 0 1-.61-.41 1.28 1.28 0 0 1-.09-1.07.55.55 0 0 1 .55-.38.83.83 0 0 1 .36.08 15 15 0 0 0 1.38.58 2 2 0 0 1 1.05 1.02zM1532.4 408.67l-.67 1.49a4.85 4.85 0 0 0-1.8-.39 4 4 0 0 1-1.46-.18.45.45 0 0 1-.33-.54 1 1 0 0 1 1.37-.79c.11.05.23.09.34.15a2.85 2.85 0 0 0 1.07.26zM1566 406a1.14 1.14 0 0 1 .37 0 1.7 1.7 0 0 1 1.05 1 .59.59 0 0 1-.22.67 1 1 0 0 1-1.38-.1 1.05 1.05 0 0 1-.1-1.39 1.6 1.6 0 0 1 .28-.18zM1603.87 398.06v-1.58c1-.51 2.09-1.06 3 .29-.09.22-.18.44-.28.65a1.14 1.14 0 0 1-.85.57 9.61 9.61 0 0 1-1.87.07zM1611.51 401c0 .36 0 .72.08 1.07a1.35 1.35 0 0 1-1.21.68 6.25 6.25 0 0 1-1.83-.12.51.51 0 0 1-.29-.21c-.11-.14 0-.38.23-.51a12.36 12.36 0 0 0 1.27-.74 1.77 1.77 0 0 1 1.4-.26zM711.66 401.74l.05.83a2.33 2.33 0 0 1-.36.08 11.13 11.13 0 0 1-3.31 0c-.27-.15-.4-.32-.32-.47a.49.49 0 0 1 .26-.25 3 3 0 0 1 .72-.14zM749.35 391.1a6 6 0 0 0-1.62.86c-.25 0-.5 0-.75-.1a.77.77 0 0 1-.61-.39c-.11-.22.38-.64.78-.69h1.52a1.1 1.1 0 0 1 .68.32z" transform="translate(0 -315)"/><path class="cls-1" d="M1606.78 396.77a6 6 0 0 0-1.83-.28h-1.12c0-.24-.06-.48-.1-.71-.1-.51.63-1.06 1.31-.78a3.4 3.4 0 0 0 1.74.41zM739.61 408.39c-.09.09-.15.2-.25.25a1.09 1.09 0 0 1-1.38-.19 1.22 1.22 0 0 1-.08-1.09.44.44 0 0 1 .6-.32 1.73 1.73 0 0 1 1.1 1 .91.91 0 0 1 .01.35zM1543.23 413.23a5.85 5.85 0 0 1-.63.38 1.37 1.37 0 0 1-1.07.05 4.52 4.52 0 0 1-.66-.33.93.93 0 0 1 .79-.58 2.66 2.66 0 0 1 1 .06.81.81 0 0 1 .57.42zM840.19 369.18a.51.51 0 0 1 .52.38 1 1 0 0 1-.6 1.2.56.56 0 0 1-.68-.22.6.6 0 0 1-.1-.66 1.45 1.45 0 0 1 .52-.55 2.07 2.07 0 0 1 .34-.15zM1554 413.34h1.82a2.91 2.91 0 0 1 2 .85 12.77 12.77 0 0 0-2.89-.35c-.39.01-.48-.05-.93-.5zM1517.68 414.85a.76.76 0 0 1-.67-.25.46.46 0 0 1 .12-.63.71.71 0 0 1 .67-.19.69.69 0 0 1 .54.43.41.41 0 0 1-.3.58zM740.56 422.34a1.55 1.55 0 0 1-.66.86.64.64 0 0 1-.9-.2.77.77 0 0 1 .54-1.11 1.08 1.08 0 0 1 .71 0c.26.11.36.26.31.45zM807.43 372.79c.3.2.61.37.89.59a5.16 5.16 0 0 0 1.56.81 1.1 1.1 0 0 1-1.18.67 1.14 1.14 0 0 1-.85-.64zM1568.71 411.85l-.84-.08a.86.86 0 0 1-.58-.41.83.83 0 0 1 .51-.46 3.09 3.09 0 0 1 1.83 0 .76.76 0 0 1 .27.24.34.34 0 0 1-.19.55 4.28 4.28 0 0 1-1 .16zM930.58 354.49a1.77 1.77 0 0 1-1.6.55 1.82 1.82 0 0 1-1.22-.66c-.07-.09-.13-.19-.2-.29l.33.09a6.14 6.14 0 0 0 2.69.31zM831.55 371.58a9.21 9.21 0 0 1 1.52-2 .66.66 0 0 1 .43.55c0 .37-.13.62-.58.82l-.69.3zM1177 332.78l-.85.83a1.77 1.77 0 0 1-.91-.58c-.42-.43-.38-.88.29-1.07a1 1 0 0 1 .72.05c.38.16.46.24.75.77zM1560.89 403.36c.35.06.69.11 1 .19a1.69 1.69 0 0 1 .85.59c.14.18.25.39.38.59a1.33 1.33 0 0 1-.6-.31 2.88 2.88 0 0 0-1.17-.62.91.91 0 0 1-.46-.44zM43.66 343c-.14.34-.16.8-.58.92s-.68-.25-1-.49a1.12 1.12 0 0 1 1.21-.53 1.33 1.33 0 0 1 .37.1zM712.32 422.66a1.61 1.61 0 0 1 .88.51c.23.25.44.53.67.8a.46.46 0 0 1-.35.51.61.61 0 0 1-.6-.2 1.17 1.17 0 0 1-.19-.3 5.61 5.61 0 0 1-.41-1.32zM732.79 423.12c0 .3-.11.5-.4.51a.38.38 0 0 1-.41-.48.41.41 0 0 1 .2-.28.4.4 0 0 1 .61.25zM1163.28 345.91a1.31 1.31 0 0 1-1-.28c-.22-.18-.2-.38.1-.54a1.57 1.57 0 0 1 1.71.1c.22.19.2.37-.1.54a1.52 1.52 0 0 1-.71.18zM743.45 427.73a5.08 5.08 0 0 0-1.07 1 1 1 0 0 1-.64-1.1.7.7 0 0 1 .33-.59.88.88 0 0 1 1 .13 1.56 1.56 0 0 1 .38.56zM1560.81 396.56l-.88.75a.57.57 0 0 1-.35-.6.83.83 0 0 1 .09-.36.59.59 0 0 1 .95-.11 1.29 1.29 0 0 1 .19.32zM1559.36 414.31l.22-.27a2.12 2.12 0 0 1 1.17-.64c.23 0 .45 0 .68-.08a.86.86 0 0 1-.47.45c-.53.23-1.07.36-1.6.54zM856.77 368.71a1.39 1.39 0 0 1-1.06.12c-.25-.06-.47-.23-.44-.46s.28-.39.55-.41a.89.89 0 0 1 .67.19.63.63 0 0 1 .22.65zM902.93 359v-.93c.58-.2.65-.21 1-.13a.59.59 0 0 1 .49.44c0 .24-.2.41-.43.48a2 2 0 0 1-.33.08zM809.31 371.07a11 11 0 0 1-2.22.12.8.8 0 0 1 .56-.39 3 3 0 0 1 1 0 1 1 0 0 1 .66.27zM72.28 343.57c.35.05.73 0 1 .33-.21.38-.59.33-.93.41-.16-.31-.18-.74-.07-.74zM1563.81 405.18a6.65 6.65 0 0 1 .88-1v.66a.61.61 0 0 1-.28.54c-.25.1-.41.03-.6-.2zM714.41 406.93a.41.41 0 0 1 .22.56c0 .09-.17.14-.26.2a.38.38 0 0 1-.21-.55c.04-.09.16-.14.25-.21zM709.79 425.26a.42.42 0 0 1-.58.21c-.09 0-.15-.16-.22-.25a.41.41 0 0 1 .58-.21c.09.04.15.16.22.25z" transform="translate(0 -315)"/><path class="cls-1" d="m1557.69 414.17 1.75.07a.8.8 0 0 1-.53.5 1.08 1.08 0 0 1-.73 0 .8.8 0 0 1-.49-.57zM809.94 374.12a1.27 1.27 0 0 1 .62-.63.82.82 0 0 1-.62.63zM831.46 368.94l-.92.65a1.64 1.64 0 0 1 .16-.26c.23-.33.3-.33.76-.39zM833.09 369.61l-.83-.66c.44.08.51.11.7.4a1.58 1.58 0 0 1 .13.26zM718.58 402.42c.22-.58.42-.53.78-.59a1 1 0 0 1-.78.59zM810.23 371.83a3.14 3.14 0 0 1-1-.78.78.78 0 0 1 .61.24c.16.17.26.36.39.54zM829.82 371.21l.87.6a.78.78 0 0 1-.87-.6zM728.93 386.52a5 5 0 0 1 1.19.8 2.92 2.92 0 0 1-1.19-.8zM1572.23 411.43c-.08.06-.17.18-.24.17s-.13-.15-.19-.23.17-.18.24-.17.13.15.19.23zM712.73 387.5l-.16-.15.23.14zM812.26 372.56a4 4 0 0 1 0-.49c.24-.06.47 0 .47.25s-.23.31-.47.24zM274.23 384.23l.62.74c-.37-.1-.66-.29-.62-.74zM1564.68 404.16a2.31 2.31 0 0 1 .64-.75 1.08 1.08 0 0 1-.64.75zM738.46 375.41c-.08.06-.17.17-.24.16s-.13-.14-.19-.21.17-.18.24-.17.13.14.19.22zM717.08 379.6zM1181.64 332.86a.79.79 0 0 1-.64-.29 1.17 1.17 0 0 1 .24-1.62 1.11 1.11 0 0 1 1.3.39 1.26 1.26 0 0 1 .13.34.85.85 0 0 1-.66 1.12c-.12.03-.24.04-.37.06zM1199.32 332a1.71 1.71 0 0 1 1 .32.63.63 0 0 1 .26.66.74.74 0 0 1-.35.61 2.1 2.1 0 0 1-1.81.11 1.52 1.52 0 0 1-.56-.48c-.15-.19.1-.87.35-1a3.29 3.29 0 0 1 .69-.23 1.09 1.09 0 0 1 .42.01zM1621.05 399.64h.76a3.17 3.17 0 0 1 1.77.53h-1.13a2.47 2.47 0 0 1-1.4-.53zM931.41 354.47h.37a.79.79 0 0 1 .65.28 1.2 1.2 0 0 1 .12.35 2.41 2.41 0 0 1-1.14-.63zM1569.93 396.34a1.77 1.77 0 0 1-.67-1.48v-.67a1.44 1.44 0 0 1 .65 1.13 8.68 8.68 0 0 1 .02 1.02zM720.07 407.28c.17-.15.33-.32.51-.46a.4.4 0 0 1 .58 0s0 .18-.1.23a.76.76 0 0 1-.31.1c-.22 0-.45.08-.67.12z" transform="translate(0 -315)"/></svg>