<svg xmlns="http://www.w3.org/2000/svg" version="1.0" viewBox="1.22 150.82 372.76 50.26"><path d="M351.574 191.254c-6.383-4.094-16.574-8.711-24.265-16-12.727-12.055-25.211-11.45-34.168 3.707-14.028 23.73-39.22 25.836-57.887 4.84-16.938-19.051-22.91-19.063-39.695-.074-19.996 22.617-40.024 23.363-60.914.875-11.247-12.11-20.922-10.258-31.7-.45-22.691 20.657-35.87 20.754-57.5.614-10.918-10.168-17.976-8.828-30.984 4.593-3.324 3.43-8.55 4.989-12.902 7.407.289-6.016-1.563-13.395 1.226-17.817 13.516-21.437 36.844-23.758 54.711-5.515 10.383 10.593 17.883 11.578 29.008.039 20.7-21.47 42.113-20.278 62.078 1.156 11.75 12.617 17.223 12.953 28.469-.746 9.664-11.77 19.57-21.18 36.183-20.992 13.84.16 24.575 3.804 33.063 15.875 12.191 17.336 20.187 16.629 30.828-.825 12.79-20.976 45.75-22.847 62.457-4.652 4.02 4.379 14.633 8.32 18.414 6.05 7.707-4.62 13.738-5.015 15.824 2.692 1.184 4.38-4.367 11.239-8.093 16.024-1.57 2.02-6.266 1.574-14.153 3.199zm0 0"/></svg>