<svg xmlns="http://www.w3.org/2000/svg" version="1.0" viewBox="3 110 371 91.7"><defs><clipPath id="a"><path d="M3 110h371v91.7H3zm0 0"/></clipPath></defs><g clip-path="url(#a)"><path d="M128.39 117.95c1.915-.141 7.72-.884 15.93-1.72 11-1.109 26.91-3.785 43.942-5.207 17.988-1.675 33.523-.898 48.015 3.254 1.145-1.672 5.18 1.618 10.703 9.426 1.13 4.89.81 8.535-.785 10.942-1.605 2.648-2.867 4.156-3.73 4.671-2.684 2.141-4.66 3.227-5.836 3.692a62.689 62.689 0 0 1-5.809 2.441c-3.11 1.133-4.336 1.395-3.64.942-1.864.68-4.95 1.754-8.79 3.086-2.671.949-6.574 2.222-9.093 3.394-1.926.875-3.75 1.805-6.238 3.024-3.852 1.882-8.438 4.128-12.922 6.308-10.91 5.3-23.512 11.356-36.582 17.39-11.97 5.536-24.137 11.063-36.77 15.93-4.285 1.668-8.805 3.332-13.789 4.598-1.473.414-3.465.809-5.965.969-.82.094-2.097.015-3.808-.29-.723-2.66-2.086-6.292-3.989-10.937.07-.195.137-.379.2-.558.207-.54.414-1.07.613-1.598.797-2.133 1.512-4.21 2.129-6.25.98-.316 1.886-.586 2.71-.828a719.344 719.344 0 0 1 9.114-2.613c10.559-2.989 20.082-5.645 27.86-7.864 13.988-3.992 22.359-6.55 20.976-6.668-.707-.078-1.2-4.847-1.258-4.363-6.953 1.461-2.344.024 7.535-2.7 2.992-.823 6.57-1.796 10.336-2.8 1.52-.406 3.406-.926 5.442-1.422 13.28-3.207 28.722-6.922 38.578-9.234 8.578-2.012 15.355-3.594 4.722-1.531 16.454-2.446 10.977 4.421 23.118 1.586 7.316-1.543 24.191-3.352 32.738-2.946 3.23.153 4.527.621 2.45 1.477-.763.137-1.477.27-2.153.394-13.918 2.614-10.086 2.024.05.325 8.399-1.41 18.376-2.868 29.208-3.836 10.332-.926 18.671-1.114 21.195-.985-7.918.496 6.875-.472 22.16.113 8.102.313 14.934.954 20.469 1.633 5.074.621 7.48 1.012 4.441.543 1.66.559-16.66-1.254-38.203.102-23.996 1.512-43.797 5.625-58.312 8.437l-1.329.258c.52-.117.957-.219 1.32-.308 1.84-.434 1.798-.52-.042-.262-5.621.793-19.719 3.45-39.262 8.379-18.863 4.758-39.809 10.855-56.14 15.574-1.575.46-3.356 1.043-4.934 1.539-3.813 1.203-7.336 2.34-10.14 3.258-5.325 1.742-8.618 2.887-8.915 3.117 1.317-.215 4.684-.898 9.27-1.86 3.175-.663 6.453-1.363 10.425-2.202 1.708-.364 3.442-.75 5.008-1.036 15.887-3.023 39.16-7.691 42.024-8.43-10.125 1.633-5.43.141 10.133-3.202 16.082-3.45 30.91-5.957 43.73-7.598l.172-.02c.043.008-.012.028-.164.067-1.578.39-13.559 2.3-31.016 6.117-20.683 4.527-37.168 8.898-64.191 15.762-1.477.375-3.086.84-4.86 1.336-3.406.949-6.816 1.906-10.23 2.87a6283.538 6283.538 0 0 0-28.738 8.188c-10.106 2.903-19 5.477-27.66 8.051-3.176.941-6.008 1.79-8.825 2.672-.84.262-1.558.484-2.191.703a78.813 78.813 0 0 1 1.488-8.484c.05-.196.102-.391.156-.586-1.765-4.946-2.687-8.903-2.879-11.828-1.07-.153-1.578-.227-1.574-.165.012.055.625-.16 1.735-.402 3.73-.976 8.164-2.828 11.164-4.062a167.304 167.304 0 0 0 6.453-2.84c2.285.328 14.875-4.66 29.625-11.176 13.844-6.117 28.715-13.242 35.937-16.5l.48-.262c5.434-2.949 9.63-5.289 12.528-6.945 1.27-.727 6.235-3.645 6.414-3.75 3.29-1.875 6.512-3.719 10.375-5.625 2.535-1.254 6.145-2.84 11.063-5.297a70.284 70.284 0 0 0 2.422-1.262c-1.496.641-2.403.926-2.57.895-.036-.004-.04-.023-.024-.05.144-.24 1.95-1.165 3.672-2.345.86-.66 1.129-.804.43-.492-.301-.011-1.012.914-2.274 2.84-1.367 1.922-1.582 4.996-.656 9.371 5.07 6.43 6.98 9.074 6.39 6.977-4.535-.93-8.87-1.137-11.207-1.008-2.941.164-.945.39 3.743 1.281 3.996-.047 1.863-2.46-6.5-4.922-8.282-2.441-18.02-3.289-25.235-3.816-3.285-.227-5.32-.328-4.586-.426 1.774-.422-1.73-.437-9.097.16-9.766.797-20.317 2.098-30.083 2.89-10.378.837-20.87 2.079-31.527 3.513-6.976.933-13.215 1.87-19.226 2.949-6.094 1.101-10.282 1.93-14.52 3.27-6.137 1.937-10.004 3.378-10.43 3.515-.43.137 2.563-1.102 10.391-3.633 1.57-.508 3.316-1 5.352-1.488a88.467 88.467 0 0 0-5.387 1.39c-3.649 1.051-2.262.47-1.86.07.368-.362-.382-.558-8.39 1.938 6.14-2.086-.074.192-5.957 2.516-9.903 3.91-15.68 6.465-29.04 12.105-11.991 5.059-19.988 8.2-27.35 10.75-6.087 2.11-7.606 2.579-.313-.058-7.934 2.828 2.605-1.32 15.351-7.235 11.477-5.328 37.239-18.312 55.809-25.242 5.055-1.863 10.222-3.094 15.07-4.21 6.7-1.548 13.317-2.852 19.344-3.97 14.754-2.742 24.629-4.23 31.707-5.148 5.02-.652 6.422-.836 2.566-.23 3.153-.368 4.489-1.977 7.328-3.649 2.786-1.644 7.329-3.527 16.868-4.297-3.844.157-9.797 1.16-14.461 1.828-4.614.665-7.782.957-5.938-.152 5.875-1.394 3.477-2.098-7.234-1.55-4.028.222-9.297.687-15.938 1.546"/></g></svg>