<svg xmlns="http://www.w3.org/2000/svg" viewBox="0 0 375 375" version="1.0"><defs><clipPath id="a"><path d="M18 45h343.5v330H18zm0 0"/></clipPath></defs><path d="M179.418 185.84c1.32-.113 2.977-.227 4.621-.403 1.14-.12 2.27-.363 3.406-.496 3.993-.48 7.672-1.996 11.317-3.539a65.867 65.867 0 0 0 13.316-7.855c4.277-3.156 7.977-6.953 11.938-10.484 1.152-1.016 2.308-2.036 3.535-2.961a10.32 10.32 0 0 1 4.89-1.774c7.77-1.168 15.204 3.395 16.98 12.207.567 2.793.364 5.531-.616 8.207a11.559 11.559 0 0 1-2.672 4.168c-2.106 2.18-4.223 4.356-6.414 6.418-1.867 1.746-3.86 3.363-5.84 4.988-1.684 1.38-3.383 2.743-5.14 4.016a56.589 56.589 0 0 1-5.442 3.61c-3.547 1.96-7.129 3.874-10.79 5.597a57.196 57.196 0 0 1-7.089 2.59 85.051 85.051 0 0 1-6.902 1.887c-1.864.43-3.766.683-5.664.937-1.899.25-3.895.434-5.844.586-1.07.082-2.14.05-3.207.05-1.446 0-2.899.044-4.336-.054-1.914-.129-3.832-.273-5.719-.578-3.504-.566-6.984-1.23-10.465-1.894-4.09-.774-7.984-2.168-11.867-3.633-7.75-2.938-14.434-7.528-20.586-12.985-7.543-6.668-14.43-14.007-21.598-21.05-2.257-2.211-4.48-4.465-6.71-6.711a8849.978 8849.978 0 0 1-15.993-16.106 16.962 16.962 0 0 0-2.187-1.766 2.582 2.582 0 0 0-1.563-.52 2.636 2.636 0 0 0-1.566.52 9.33 9.33 0 0 0-1.473 1.215 83402.322 83402.322 0 0 0-45.531 45.536l-8.523 8.523a16.518 16.518 0 0 1-4.75 3.437c-5.278 2.446-11.762 1.563-15.852-2.476-2.984-2.942-4.871-6.375-5.004-10.617-.144-4.457 1.606-8.168 4.711-11.266a19463.157 19463.157 0 0 1 32.367-32.387c48.7-48.738 97.399-97.449 146.106-146.144a15.194 15.194 0 0 1 9.04-4.516c1.14-.14 2.28-.152 3.425-.035a13.8 13.8 0 0 1 2.55.453 14.255 14.255 0 0 1 4.648 2.258c.7.516 1.345 1.09 1.938 1.723a14.46 14.46 0 0 1 1.59 2.05 14.14 14.14 0 0 1 2.227 7.364 15.733 15.733 0 0 1-.239 3.316c-.195 1.098-.5 2.16-.921 3.192a15.842 15.842 0 0 1-3.71 5.473C170.44 59.257 137.097 92.608 103.78 125.968a12.238 12.238 0 0 0-1.547 1.867 2.2 2.2 0 0 0-.464 1.324 2.22 2.22 0 0 0 .406 1.348 11.29 11.29 0 0 0 1.43 1.953 17392.59 17392.59 0 0 0 37.011 36.992 34.394 34.394 0 0 0 5.008 3.984c2.898 1.965 5.879 3.805 8.863 5.637 2.742 1.692 5.762 2.766 8.762 3.899a41.256 41.256 0 0 0 10.316 2.386c1.82.172 3.649.293 5.852.48zm0 0"/><g clip-path="url(#a)"><path d="M257.316 173.25c-1.433-11.688-10.332-20.32-20.316-21.191.254-.305.434-.567.66-.793 16.035-16.043 32.094-32.094 48.164-48.16a8.352 8.352 0 0 1 4.278-2.239c3.918-.847 7.652-.328 11.003 1.973a35.608 35.608 0 0 1 3.977 3.207c1.602 1.445 3.035 3.016 4.555 4.52l30.39 30.167c2.137 2.137 4.188 4.399 6.192 6.672a40.627 40.627 0 0 1 5.504 8.48 92.702 92.702 0 0 1 5.789 14.231 68.203 68.203 0 0 1 2.261 8.414c.602 3.207 1.38 6.414 1.418 9.735 0 .765.215 1.53.227 2.297a69.869 69.869 0 0 1-.957 13.234c-1.07 6.047-3.152 11.766-5.348 17.469-2.797 7.14-7.218 13.273-11.761 19.324a165.923 165.923 0 0 1-15.305 17.43 43149.481 43149.481 0 0 1-70.703 70.796c-3.262 3.27-6.531 6.532-9.813 9.778-.601.61-1.27 1.144-1.992 1.601a11.31 11.31 0 0 1-7.36 1.684c-3.042-.258-5.882-1.14-8.265-3.14-4.277-3.626-6.348-8.184-5.348-13.872.32-1.394.907-2.664 1.754-3.812 1.348-2.067 3.207-3.653 4.934-5.383 6.375-6.414 12.832-12.832 19.207-19.25 11.539-11.563 23.074-23.125 34.605-34.688 8.922-8.921 17.887-17.789 26.79-26.738 1.921-1.934 3.69-4.035 5.417-6.144 2.028-2.485 4.032-4.997 5.883-7.622 6.242-8.964 9.45-18.855 8.375-29.851a62.729 62.729 0 0 0-5.023-19.016c-2.293-5.289-5.79-9.625-9.809-13.656l-20.148-20.125c-.332-.332-.653-.68-1.012-.977-.156-.167-.34-.3-.55-.39-.212-.094-.43-.14-.66-.14-.231 0-.45.046-.661.14-.211.09-.395.222-.55.39-.263.22-.493.477-.731.715l-33.922 33.926c-.39.305-.707.582-1.149 1.004zm-239.18 42.21c1.657-.503 3.208-.89 4.669-1.429 4.398-1.601 7.949-4.426 11.16-7.754 2.496-2.582 5.035-5.12 7.558-7.672.153-.156.317-.285.59-.535.336.325.672.625.989.95 16.308 16.648 32.617 33.292 48.925 49.94a71897.89 71897.89 0 0 0 45.18 46.08c.297.304.586.616.902.905a3.705 3.705 0 0 0 2.309 1.008 3.732 3.732 0 0 0 2.422-.68 10.542 10.542 0 0 0 1.46-1.242l31.005-31.36a25.168 25.168 0 0 1 3.71-3.132c3.84-2.566 10.536-3.52 15.423-.105 4.046 2.824 5.964 6.855 5.523 11.843a16.779 16.779 0 0 1-1.555 5.727 16.712 16.712 0 0 1-3.445 4.836c-8.414 8.512-16.828 17.023-25.246 25.527-6.2 6.258-12.403 12.508-18.61 18.754a17.055 17.055 0 0 1-4.273 3.246 16.848 16.848 0 0 1-5.07 1.754c-1.766.348-3.532.36-5.297.035a14.071 14.071 0 0 1-4.938-1.914 24.833 24.833 0 0 1-4.507-3.57c-24.407-24.938-48.82-49.856-73.239-74.762-5.504-5.617-11.074-11.172-16.57-16.789a3578.703 3578.703 0 0 1-18.598-19.125c-.156-.125-.277-.297-.476-.535zM240.142 45.54c.683 0 1.367.03 2.047.093.68.066 1.355.164 2.027.293.672.133 1.336.297 1.988.492a21.047 21.047 0 0 1 3.785 1.559c.606.324 1.192.671 1.762 1.05.566.383 1.117.79 1.645 1.223.53.43 1.035.89 1.52 1.375a20.264 20.264 0 0 1 2.597 3.164c.383.566.73 1.152 1.054 1.758.32.601.614 1.223.875 1.851a21.046 21.046 0 0 1 1.184 3.922c.129.672.23 1.348.293 2.028.066.68.098 1.363.098 2.047a21.78 21.78 0 0 1-.094 2.082 21.418 21.418 0 0 1-1.496 6.043 21.15 21.15 0 0 1-3.184 5.347 20.883 20.883 0 0 1-2.93 2.95 20.795 20.795 0 0 1-3.449 2.32 21.183 21.183 0 0 1-5.855 2.113 21.45 21.45 0 0 1-2.059.313 20.45 20.45 0 0 1-2.078.105c-.676.008-1.355-.02-2.031-.082a19.536 19.536 0 0 1-2.016-.281 20.487 20.487 0 0 1-1.976-.477 21.518 21.518 0 0 1-1.922-.668 19.175 19.175 0 0 1-1.844-.851 20.836 20.836 0 0 1-1.758-1.028 20.743 20.743 0 0 1-3.164-2.547 20.839 20.839 0 0 1-2.613-3.113 19.61 19.61 0 0 1-1.063-1.734 19.74 19.74 0 0 1-.89-1.828 21.084 21.084 0 0 1-.707-1.907 20.257 20.257 0 0 1-.516-1.968 20.462 20.462 0 0 1-.45-4.04c-.01-.703.013-1.406.071-2.105.059-.7.153-1.394.278-2.086.128-.691.289-1.375.484-2.05.195-.676.422-1.34.684-1.993.261-.652.554-1.289.875-1.914a21.28 21.28 0 0 1 2.3-3.52 21.413 21.413 0 0 1 2.945-3.004 21.28 21.28 0 0 1 3.481-2.359c.617-.336 1.25-.64 1.899-.91a21.025 21.025 0 0 1 1.98-.719 19.98 19.98 0 0 1 2.039-.52c.688-.14 1.383-.245 2.082-.316.7-.07 1.399-.105 2.102-.109zm-34.743 308.417c-.054 11.766-9.363 21.059-20.851 21.043a20.569 20.569 0 0 1-4.031-.371c-.664-.129-1.32-.29-1.965-.484a19.883 19.883 0 0 1-1.914-.676 21.122 21.122 0 0 1-1.832-.86 21.836 21.836 0 0 1-1.743-1.043 19.659 19.659 0 0 1-1.625-1.207 20.616 20.616 0 0 1-1.503-1.359 20.563 20.563 0 0 1-4.454-6.715 20.973 20.973 0 0 1-.671-1.914 21.262 21.262 0 0 1-.48-1.969 21.767 21.767 0 0 1-.282-2.007 21.93 21.93 0 0 1-.082-2.028c.008-.68.047-1.36.117-2.035a20.767 20.767 0 0 1 .82-3.992c.203-.652.434-1.29.7-1.918.261-.629.554-1.242.878-1.84a21.356 21.356 0 0 1 2.274-3.383c.434-.523.89-1.027 1.371-1.508.484-.48.988-.937 1.512-1.37.527-.43 1.074-.837 1.64-1.216a21.995 21.995 0 0 1 1.746-1.05 21.192 21.192 0 0 1 5.738-2.07c.669-.133 1.34-.239 2.016-.31.68-.066 1.36-.105 2.04-.109.667 0 1.34.028 2.007.094a20.132 20.132 0 0 1 3.938.766c.644.191 1.273.418 1.894.672a20.68 20.68 0 0 1 3.547 1.875 20.342 20.342 0 0 1 3.117 2.535c.477.472.93.965 1.356 1.48.43.516.828 1.055 1.207 1.61a20.86 20.86 0 0 1 1.91 3.531c.258.617.488 1.246.687 1.887.2.64.364 1.293.5 1.949a21.152 21.152 0 0 1 .418 3.992zm0 0"/></g></svg>